<svg width="104" height="25" viewBox="0 0 104 25" fill="none" xmlns="http://www.w3.org/2000/svg">
<path d="M0.68 24V23.16C2.12 23.16 2.96 22.8933 3.2 22.36V2.24C2.96 1.70667 2.12 1.44 0.68 1.44V0.599998H9.72C13.0267 0.599998 15.5333 1.2 17.24 2.4C18.9467 3.6 19.8 4.97333 19.8 6.52C19.8 7.98667 19.36 9.28 18.48 10.4C17.6 11.4933 16.2933 12.2933 14.56 12.8L19.88 22.32C20.1467 22.88 21.0267 23.16 22.52 23.16V24H20.8C18.9333 24 17.72 23.8933 17.16 23.68C16.6 23.4667 16.04 22.88 15.48 21.92L10.64 13.36H6.88V22.36C7.12 22.8933 7.96 23.16 9.4 23.16V24H0.68ZM6.88 1.96V12H10.2C12.3333 12 13.8 11.5867 14.6 10.76C15.4 9.93333 15.8 8.53333 15.8 6.56C15.8 5.09333 15.3467 3.96 14.44 3.16C13.56 2.36 11.9867 1.96 9.72 1.96H6.88ZM40.8422 21.56C40.8422 21.56 41.6822 21.6267 43.3622 21.76V22.68C42.8555 22.68 41.8555 22.9733 40.3622 23.56C38.8955 24.12 37.8555 24.4 37.2422 24.4V22.56C35.8022 23.7867 34.2155 24.4 32.4822 24.4C30.0022 24.4 28.2022 23.9467 27.0822 23.04C25.9889 22.1067 25.4422 20.6667 25.4422 18.72V8.04C25.2022 7.50667 24.3622 7.24 22.9222 7.24V6.4H29.0422V19C29.0422 21.6933 30.2689 23.04 32.7222 23.04C34.4022 23.04 35.9089 22.4533 37.2422 21.28V8.04C37.0022 7.50667 36.1622 7.24 34.7222 7.24V6.4H40.8422V21.56ZM45.4744 24V23.16C46.9144 23.16 47.7544 22.8933 47.9944 22.36V8.84C46.341 8.70667 45.501 8.64 45.4744 8.64V7.72C45.981 7.72 46.9677 7.44 48.4344 6.88C49.9277 6.29333 50.981 6 51.5944 6V7.8C53.0077 6.6 54.4877 6 56.0344 6C59.2344 6 61.2877 6.77333 62.1944 8.32C63.6877 6.77333 65.3544 6 67.1944 6C71.6744 6 73.9144 7.52 73.9144 10.56V22.36C74.1544 22.8933 74.9944 23.16 76.4344 23.16V24H67.7944V23.16C69.2344 23.16 70.0744 22.8933 70.3144 22.36V12.04C70.3144 10.3067 70.061 9.09333 69.5544 8.4C69.0477 7.70667 68.181 7.36 66.9544 7.36C65.381 7.36 63.9277 8 62.5944 9.28C62.701 9.62667 62.7544 10.0533 62.7544 10.56V22.36C62.9944 22.8933 63.8344 23.16 65.2744 23.16V24H56.6344V23.16C58.0744 23.16 58.9144 22.8933 59.1544 22.36V12.04C59.1544 10.3067 58.901 9.09333 58.3944 8.4C57.8877 7.70667 57.021 7.36 55.7944 7.36C54.2744 7.36 52.8744 7.94667 51.5944 9.12V22.36C51.8344 22.8933 52.6744 23.16 54.1144 23.16V24H45.4744ZM81.6441 9.36C82.0174 9.36 82.3374 9.49333 82.6041 9.76C82.8974 10.0267 83.0441 10.44 83.0441 11C83.0441 11.4533 82.8574 11.8 82.4841 12.04C82.1374 12.28 81.7241 12.4 81.2441 12.4C80.7374 12.4 80.3241 12.2267 80.0041 11.88C79.6841 11.5067 79.5241 11.0133 79.5241 10.4C79.5241 9.01333 80.0974 7.93333 81.2441 7.16C82.3907 6.38667 84.0174 6 86.1241 6C88.6041 6 90.4174 6.61333 91.5641 7.84C92.7374 9.06667 93.3241 10.6933 93.3241 12.72V20.64C93.3241 21.4933 93.4574 22.12 93.7241 22.52C94.0174 22.92 94.3641 23.12 94.7641 23.12C95.1107 23.12 95.4174 23.0267 95.6841 22.84C95.9774 22.6533 96.1241 22.4267 96.1241 22.16H96.8441C96.8441 22.9067 96.5641 23.4533 96.0041 23.8C95.4707 24.1467 94.5241 24.32 93.1641 24.32C91.8307 24.32 90.8841 23.7733 90.3241 22.68C88.7507 23.8267 86.7907 24.4 84.4441 24.4C80.4441 24.4 78.4441 22.7733 78.4441 19.52C78.4441 18.8267 78.6841 18.2 79.1641 17.64C79.6707 17.08 80.3907 16.6133 81.3241 16.24C82.2574 15.8667 83.1374 15.5733 83.9641 15.36C84.7907 15.12 85.8174 14.8667 87.0441 14.6C88.2974 14.3067 89.1907 14.08 89.7241 13.92C89.7241 11.68 89.4307 10.04 88.8441 9C88.2574 7.96 87.2174 7.44 85.7241 7.44C83.3241 7.44 81.9641 8.08 81.6441 9.36ZM89.9641 21.68C89.8041 21.0933 89.7241 20.3733 89.7241 19.52V14.8C89.4307 14.9067 88.9241 15.0533 88.2041 15.24C87.5107 15.4267 86.9374 15.5867 86.4841 15.72C86.0574 15.8533 85.5374 16.0533 84.9241 16.32C84.3107 16.5867 83.8307 16.8533 83.4841 17.12C83.1374 17.3867 82.8307 17.7467 82.5641 18.2C82.2974 18.6267 82.1641 19.0933 82.1641 19.6C82.1641 20.88 82.4041 21.7733 82.8841 22.28C83.3907 22.7867 84.1374 23.04 85.1241 23.04C86.8841 23.04 88.4974 22.5867 89.9641 21.68ZM99.22 23.68C98.74 23.1733 98.5 22.6 98.5 21.96C98.5 21.32 98.7133 20.7467 99.14 20.24C99.5933 19.7067 100.167 19.44 100.86 19.44C101.473 19.44 102.033 19.68 102.54 20.16C103.047 20.64 103.3 21.2 103.3 21.84C103.3 22.48 103.073 23.0667 102.62 23.6C102.167 24.1333 101.593 24.4 100.9 24.4C100.287 24.4 99.7267 24.16 99.22 23.68Z" fill="#A5A5A5"/>
</svg>
