<svg width="1079" height="239" viewBox="0 0 1079 239" fill="none" xmlns="http://www.w3.org/2000/svg">
<path d="M139.5 98.05L140.137 98.821L140.139 98.8195L139.5 98.05ZM139.83 31.39L139.193 32.161L139.203 32.1692L139.83 31.39ZM164.58 20.17L163.954 20.9496L163.96 20.9546L164.58 20.17ZM164.91 106.96L165.565 107.716L165.566 107.715L164.91 106.96ZM120.69 124.78L120.663 123.78L120.064 123.797L119.796 124.333L120.69 124.78ZM120.36 125.44L119.466 124.993L118.95 126.024L120.044 126.389L120.36 125.44ZM131.25 134.02L132.096 133.487L132.095 133.486L131.25 134.02ZM181.08 213.22L181.938 212.706L181.932 212.696L181.926 212.687L181.08 213.22ZM202.86 226.75L202.728 227.741L202.739 227.743L202.75 227.744L202.86 226.75ZM208.8 227.41L208.952 226.422L208.931 226.418L208.91 226.416L208.8 227.41ZM208.14 236.32L208.098 237.319L208.119 237.32H208.14V236.32ZM156.66 228.4L155.803 228.915L155.812 228.93L155.822 228.945L156.66 228.4ZM100.89 135.67L101.747 135.155L101.739 135.141L101.73 135.128L100.89 135.67ZM61.62 222.79L62.2659 222.027L61.62 222.79ZM72.18 226.75L72.1274 227.749L72.1324 227.749L72.18 226.75ZM86.04 227.41L85.9924 228.409L86.0162 228.41H86.04V227.41ZM85.05 236.32L85.018 237.319L85.034 237.32H85.05V236.32ZM43.8 235L43.832 234.001L43.798 233.999L43.764 234.001L43.8 235ZM7.17 236.32V237.32H7.18801L7.20601 237.319L7.17 236.32ZM2.22 232.36H1.22V232.443L1.23361 232.524L2.22 232.36ZM6.18 227.41L6.1112 226.412L6.10407 226.413L6.09696 226.413L6.18 227.41ZM15.75 226.75L15.8188 227.748L15.823 227.747L15.75 226.75ZM14.1 12.58L13.9971 13.5747L14.0052 13.5755L14.0134 13.5762L14.1 12.58ZM4.53 11.59L4.35112 12.5739L4.3889 12.5807L4.4271 12.5847L4.53 11.59ZM5.52 2.67999L5.54897 1.6804L5.53449 1.67999H5.52V2.67999ZM51.06 3.99998L51.031 4.99957L51.0455 4.99998H51.06V3.99998ZM140.139 98.8195C150.716 90.0428 156.01 78.5367 156.01 64.39H154.01C154.01 77.9633 148.964 88.8972 138.861 97.2804L140.139 98.8195ZM156.01 64.39C156.01 50.2505 150.83 38.9548 140.457 30.6108L139.203 32.1692C149.07 40.1052 154.01 50.8095 154.01 64.39H156.01ZM140.467 30.619C130.138 22.0862 117.14 17.85 101.55 17.85V19.85C116.76 19.85 129.282 23.9738 139.193 32.1609L140.467 30.619ZM101.55 17.85H70.53V19.85H101.55V17.85ZM70.53 17.85C65.9759 17.85 62.3766 18.9892 59.9229 21.4429C57.4692 23.8966 56.33 27.4958 56.33 32.05H58.33C58.33 27.8041 59.3908 24.8034 61.3371 22.8571C63.2834 20.9108 66.2841 19.85 70.53 19.85V17.85ZM56.33 32.05V106.3H58.33V32.05H56.33ZM56.33 106.3C56.33 107.847 56.6538 109.194 57.4741 110.163C58.3215 111.165 59.548 111.59 60.96 111.59V109.59C59.952 109.59 59.3635 109.3 59.0009 108.872C58.6112 108.411 58.33 107.613 58.33 106.3H56.33ZM60.96 111.59H101.55V109.59H60.96V111.59ZM101.55 111.59C116.924 111.59 129.81 107.352 140.137 98.821L138.863 97.279C128.95 105.468 116.536 109.59 101.55 109.59V111.59ZM112.77 4.99998C133.715 4.99998 150.749 10.3423 163.954 20.9496L165.206 19.3904C151.571 8.43762 134.065 2.99998 112.77 2.99998V4.99998ZM163.96 20.9546C177.353 31.5394 184.04 45.5469 184.04 63.07H186.04C186.04 44.953 179.087 30.3605 165.2 19.3854L163.96 20.9546ZM184.04 63.07C184.04 80.3771 177.458 94.7328 164.254 106.205L165.566 107.715C179.202 95.8671 186.04 80.9629 186.04 63.07H184.04ZM164.255 106.204C151.216 117.505 136.694 123.347 120.663 123.78L120.717 125.78C137.246 125.333 152.204 119.295 165.565 107.716L164.255 106.204ZM119.796 124.333L119.466 124.993L121.254 125.887L121.584 125.227L119.796 124.333ZM120.044 126.389C124.441 127.854 127.886 130.566 130.405 134.554L132.095 133.486C129.334 129.114 125.519 126.106 120.676 124.491L120.044 126.389ZM130.404 134.553L180.234 213.753L181.926 212.687L132.096 133.487L130.404 134.553ZM180.223 213.734C185.018 221.727 192.565 226.386 202.728 227.741L202.992 225.759C193.355 224.474 186.382 220.113 181.938 212.706L180.223 213.734ZM202.75 227.744L208.69 228.404L208.91 226.416L202.97 225.756L202.75 227.744ZM208.648 228.398C209.955 228.599 210.798 229.007 211.31 229.52C211.802 230.011 212.09 230.699 212.09 231.7H214.09C214.09 230.281 213.663 229.044 212.725 228.105C211.807 227.188 210.505 226.661 208.952 226.422L208.648 228.398ZM212.09 231.7C212.09 233.068 211.727 233.914 211.17 234.434C210.6 234.966 209.652 235.32 208.14 235.32V237.32C209.928 237.32 211.455 236.904 212.535 235.896C213.628 234.876 214.09 233.413 214.09 231.7H212.09ZM208.182 235.321C187.069 234.441 173.846 234 168.54 234V236C173.794 236 186.971 236.439 208.098 237.319L208.182 235.321ZM168.54 234C163.833 234 160.182 231.984 157.498 227.855L155.822 228.945C158.858 233.616 163.127 236 168.54 236V234ZM157.517 227.885L101.747 135.155L100.033 136.185L155.803 228.915L157.517 227.885ZM101.73 135.128C97.2504 128.184 92.1453 124.44 86.37 124.44V126.44C91.1547 126.44 95.7296 129.516 100.05 136.212L101.73 135.128ZM86.37 125.44C86.37 124.44 86.37 124.44 86.37 124.44H86.37C86.37 124.44 86.37 124.44 86.37 124.44C86.37 124.44 86.37 124.44 86.37 124.44H86.37C86.37 124.44 86.37 124.44 86.37 124.44C86.3699 124.44 86.3699 124.44 86.3699 124.44C86.3699 124.44 86.3699 124.44 86.3699 124.44C86.3699 124.44 86.3699 124.44 86.3699 124.44C86.3699 124.44 86.3699 124.44 86.3699 124.44C86.3699 124.44 86.3699 124.44 86.3699 124.44C86.3698 124.44 86.3698 124.44 86.3698 124.44C86.3698 124.44 86.3698 124.44 86.3698 124.44C86.3698 124.44 86.3698 124.44 86.3698 124.44C86.3697 124.44 86.3697 124.44 86.3697 124.44C86.3697 124.44 86.3697 124.44 86.3697 124.44C86.3697 124.44 86.3697 124.44 86.3696 124.44C86.3696 124.44 86.3696 124.44 86.3696 124.44C86.3696 124.44 86.3696 124.44 86.3695 124.44C86.3695 124.44 86.3695 124.44 86.3695 124.44C86.3695 124.44 86.3695 124.44 86.3694 124.44C86.3694 124.44 86.3694 124.44 86.3694 124.44C86.3694 124.44 86.3694 124.44 86.3693 124.44C86.3693 124.44 86.3693 124.44 86.3693 124.44C86.3693 124.44 86.3692 124.44 86.3692 124.44C86.3692 124.44 86.3692 124.44 86.3691 124.44C86.3691 124.44 86.3691 124.44 86.3691 124.44C86.3691 124.44 86.369 124.44 86.369 124.44C86.369 124.44 86.369 124.44 86.3689 124.44C86.3689 124.44 86.3689 124.44 86.3689 124.44C86.3688 124.44 86.3688 124.44 86.3688 124.44C86.3688 124.44 86.3687 124.44 86.3687 124.44C86.3687 124.44 86.3687 124.44 86.3686 124.44C86.3686 124.44 86.3686 124.44 86.3685 124.44C86.3685 124.44 86.3685 124.44 86.3685 124.44C86.3684 124.44 86.3684 124.44 86.3684 124.44C86.3683 124.44 86.3683 124.44 86.3683 124.44C86.3682 124.44 86.3682 124.44 86.3682 124.44C86.3681 124.44 86.3681 124.44 86.3681 124.44C86.3681 124.44 86.368 124.44 86.368 124.44C86.368 124.44 86.3679 124.44 86.3679 124.44C86.3679 124.44 86.3678 124.44 86.3678 124.44C86.3677 124.44 86.3677 124.44 86.3677 124.44C86.3676 124.44 86.3676 124.44 86.3676 124.44C86.3675 124.44 86.3675 124.44 86.3675 124.44C86.3674 124.44 86.3674 124.44 86.3673 124.44C86.3673 124.44 86.3673 124.44 86.3672 124.44C86.3672 124.44 86.3671 124.44 86.3671 124.44C86.3671 124.44 86.367 124.44 86.367 124.44C86.3669 124.44 86.3669 124.44 86.3669 124.44C86.3668 124.44 86.3668 124.44 86.3667 124.44C86.3667 124.44 86.3666 124.44 86.3666 124.44C86.3666 124.44 86.3665 124.44 86.3665 124.44C86.3664 124.44 86.3664 124.44 86.3663 124.44C86.3663 124.44 86.3662 124.44 86.3662 124.44C86.3661 124.44 86.3661 124.44 86.3661 124.44C86.366 124.44 86.366 124.44 86.3659 124.44C86.3659 124.44 86.3658 124.44 86.3658 124.44C86.3657 124.44 86.3657 124.44 86.3656 124.44C86.3656 124.44 86.3655 124.44 86.3655 124.44C86.3654 124.44 86.3654 124.44 86.3653 124.44C86.3653 124.44 86.3652 124.44 86.3652 124.44C86.3651 124.44 86.3651 124.44 86.365 124.44C86.365 124.44 86.3649 124.44 86.3648 124.44C86.3648 124.44 86.3647 124.44 86.3647 124.44C86.3646 124.44 86.3646 124.44 86.3645 124.44C86.3645 124.44 86.3644 124.44 86.3643 124.44C86.3643 124.44 86.3642 124.44 86.3642 124.44C86.3641 124.44 86.3641 124.44 86.364 124.44C86.364 124.44 86.3639 124.44 86.3638 124.44C86.3638 124.44 86.3637 124.44 86.3637 124.44C86.3636 124.44 86.3635 124.44 86.3635 124.44C86.3634 124.44 86.3634 124.44 86.3633 124.44C86.3632 124.44 86.3632 124.44 86.3631 124.44C86.363 124.44 86.363 124.44 86.3629 124.44C86.3629 124.44 86.3628 124.44 86.3627 124.44C86.3627 124.44 86.3626 124.44 86.3625 124.44C86.3625 124.44 86.3624 124.44 86.3623 124.44C86.3623 124.44 86.3622 124.44 86.3621 124.44C86.3621 124.44 86.362 124.44 86.3619 124.44C86.3619 124.44 86.3618 124.44 86.3617 124.44C86.3617 124.44 86.3616 124.44 86.3615 124.44C86.3615 124.44 86.3614 124.44 86.3613 124.44C86.3613 124.44 86.3612 124.44 86.3611 124.44C86.361 124.44 86.361 124.44 86.3609 124.44C86.3608 124.44 86.3608 124.44 86.3607 124.44C86.3606 124.44 86.3605 124.44 86.3605 124.44C86.3604 124.44 86.3603 124.44 86.3603 124.44C86.3602 124.44 86.3601 124.44 86.36 124.44C86.36 124.44 86.3599 124.44 86.3598 124.44C86.3597 124.44 86.3596 124.44 86.3596 124.44C86.3595 124.44 86.3594 124.44 86.3593 124.44C86.3593 124.44 86.3592 124.44 86.3591 124.44C86.359 124.44 86.359 124.44 86.3589 124.44C86.3588 124.44 86.3587 124.44 86.3586 124.44C86.3586 124.44 86.3585 124.44 86.3584 124.44C86.3583 124.44 86.3582 124.44 86.3582 124.44C86.3581 124.44 86.358 124.44 86.3579 124.44C86.3578 124.44 86.3577 124.44 86.3577 124.44C86.3576 124.44 86.3575 124.44 86.3574 124.44C86.3573 124.44 86.3572 124.44 86.3572 124.44C86.3571 124.44 86.357 124.44 86.3569 124.44C86.3568 124.44 86.3567 124.44 86.3566 124.44C86.3566 124.44 86.3565 124.44 86.3564 124.44C86.3563 124.44 86.3562 124.44 86.3561 124.44C86.356 124.44 86.3559 124.44 86.3559 124.44C86.3558 124.44 86.3557 124.44 86.3556 124.44C86.3555 124.44 86.3554 124.44 86.3553 124.44C86.3552 124.44 86.3551 124.44 86.355 124.44C86.355 124.44 86.3549 124.44 86.3548 124.44C86.3547 124.44 86.3546 124.44 86.3545 124.44C86.3544 124.44 86.3543 124.44 86.3542 124.44C86.3541 124.44 86.354 124.44 86.3539 124.44C86.3538 124.44 86.3537 124.44 86.3536 124.44C86.3535 124.44 86.3534 124.44 86.3534 124.44C86.3533 124.44 86.3532 124.44 86.3531 124.44C86.353 124.44 86.3529 124.44 86.3528 124.44C86.3527 124.44 86.3526 124.44 86.3525 124.44C86.3524 124.44 86.3523 124.44 86.3522 124.44C86.3521 124.44 86.352 124.44 86.3519 124.44C86.3518 124.44 86.3517 124.44 86.3516 124.44C86.3515 124.44 86.3514 124.44 86.3513 124.44C86.3512 124.44 86.3511 124.44 86.351 124.44C86.3509 124.44 86.3507 124.44 86.3506 124.44C86.3505 124.44 86.3504 124.44 86.3503 124.44C86.3502 124.44 86.3501 124.44 86.35 124.44C86.3499 124.44 86.3498 124.44 86.3497 124.44C86.3496 124.44 86.3495 124.44 86.3494 124.44C86.3493 124.44 86.3492 124.44 86.3491 124.44C86.3489 124.44 86.3488 124.44 86.3487 124.44C86.3486 124.44 86.3485 124.44 86.3484 124.44C86.3483 124.44 86.3482 124.44 86.3481 124.44C86.348 124.44 86.3478 124.44 86.3477 124.44C86.3476 124.44 86.3475 124.44 86.3474 124.44C86.3473 124.44 86.3472 124.44 86.3471 124.44C86.3469 124.44 86.3468 124.44 86.3467 124.44C86.3466 124.44 86.3465 124.44 86.3464 124.44C86.3463 124.44 86.3461 124.44 86.346 124.44C86.3459 124.44 86.3458 124.44 86.3457 124.44C86.3456 124.44 86.3454 124.44 86.3453 124.44C86.3452 124.44 86.3451 124.44 86.345 124.44C86.3449 124.44 86.3447 124.44 86.3446 124.44C86.3445 124.44 86.3444 124.44 86.3443 124.44C86.3441 124.44 86.344 124.44 86.3439 124.44C86.3438 124.44 86.3437 124.44 86.3435 124.44C86.3434 124.44 86.3433 124.44 86.3432 124.44C86.343 124.44 86.3429 124.44 86.3428 124.44C86.3427 124.44 86.3426 124.44 86.3424 124.44C86.3423 124.44 86.3422 124.44 86.3421 124.44C86.3419 124.44 86.3418 124.44 86.3417 124.44C86.3416 124.44 86.3414 124.44 86.3413 124.44C86.3412 124.44 86.341 124.44 86.3409 124.44C86.3408 124.44 86.3407 124.44 86.3405 124.44C86.3404 124.44 86.3403 124.44 86.3401 124.44C86.34 124.44 86.3399 124.44 86.3398 124.44C86.3396 124.44 86.3395 124.44 86.3394 124.44C86.3392 124.44 86.3391 124.44 86.339 124.44C86.3388 124.44 86.3387 124.44 86.3386 124.44C86.3384 124.44 86.3383 124.44 86.3382 124.44C86.338 124.44 86.3379 124.44 86.3378 124.44C86.3376 124.44 86.3375 124.44 86.3374 124.44C86.3372 124.44 86.3371 124.44 86.337 124.44C86.3368 124.44 86.3367 124.44 86.3366 124.44C86.3364 124.44 86.3363 124.44 86.3361 124.44C86.336 124.44 86.3359 124.44 86.3357 124.44C86.3356 124.44 86.3354 124.44 86.3353 124.44C86.3352 124.44 86.335 124.44 86.3349 124.44C86.3348 124.44 86.3346 124.44 86.3345 124.44C86.3343 124.44 86.3342 124.44 86.334 124.44C86.3339 124.44 86.3338 124.44 86.3336 124.44C86.3335 124.44 86.3333 124.44 86.3332 124.44C86.333 124.44 86.3329 124.44 86.3328 124.44C86.3326 124.44 86.3325 124.44 86.3323 124.44C86.3322 124.44 86.332 124.44 86.3319 124.44C86.3317 124.44 86.3316 124.44 86.3315 124.44C86.3313 124.44 86.3312 124.44 86.331 124.44C86.3309 124.44 86.3307 124.44 86.3306 124.44C86.3304 124.44 86.3303 124.44 86.3301 124.44C86.33 124.44 86.3298 124.44 86.3297 124.44C86.3295 124.44 86.3294 124.44 86.3292 124.44C86.3291 124.44 86.3289 124.44 86.3288 124.44C86.3286 124.44 86.3285 124.44 86.3283 124.44C86.3281 124.44 86.328 124.44 86.3278 124.44C86.3277 124.44 86.3275 124.44 86.3274 124.44C86.3272 124.44 86.3271 124.44 86.3269 124.44C86.3268 124.44 86.3266 124.44 86.3265 124.44C86.3263 124.44 86.3261 124.44 86.326 124.44C86.3258 124.44 86.3257 124.44 86.3255 124.44C86.3253 124.44 86.3252 124.44 86.325 124.44C86.3249 124.44 86.3247 124.44 86.3246 124.44C86.3244 124.44 86.3242 124.44 86.3241 124.44C86.3239 124.44 86.3238 124.44 86.3236 124.44C86.3234 124.44 86.3233 124.44 86.3231 124.44C86.323 124.44 86.3228 124.44 86.3226 124.44C86.3225 124.44 86.3223 124.44 86.3221 124.44C86.322 124.44 86.3218 124.44 86.3216 124.44C86.3215 124.44 86.3213 124.44 86.3211 124.44C86.321 124.44 86.3208 124.44 86.3206 124.44C86.3205 124.44 86.3203 124.44 86.3202 124.44C86.32 124.44 86.3198 124.44 86.3196 124.44C86.3195 124.44 86.3193 124.44 86.3191 124.44C86.319 124.44 86.3188 124.44 86.3186 124.44C86.3185 124.44 86.3183 124.44 86.3181 124.44C86.318 124.44 86.3178 124.44 86.3176 124.44C86.3174 124.44 86.3173 124.44 86.3171 124.44C86.3169 124.44 86.3168 124.44 86.3166 124.44C86.3164 124.44 86.3162 124.44 86.3161 124.44C86.3159 124.44 86.3157 124.44 86.3155 124.44C86.3154 124.44 86.3152 124.44 86.315 124.44C86.3148 124.44 86.3147 124.44 86.3145 124.44C86.3143 124.44 86.3141 124.44 86.314 124.44C86.3138 124.44 86.3136 124.44 86.3134 124.44C86.3132 124.44 86.3131 124.44 86.3129 124.44C86.3127 124.44 86.3125 124.44 86.3124 124.44C86.3122 124.44 86.312 124.44 86.3118 124.44C86.3116 124.44 86.3114 124.44 86.3113 124.44C86.3111 124.44 86.3109 124.44 86.3107 124.44C86.3105 124.44 86.3104 124.44 86.3102 124.44C86.31 124.44 86.3098 124.44 86.3096 124.44C86.3094 124.44 86.3093 124.44 86.3091 124.44C86.3089 124.44 86.3087 124.44 86.3085 124.44C86.3083 124.44 86.3082 124.44 86.308 124.44C86.3078 124.44 86.3076 124.44 86.3074 124.44C86.3072 124.44 86.307 124.44 86.3068 124.44C86.3066 124.44 86.3065 124.44 86.3063 124.44C86.3061 124.44 86.3059 124.44 86.3057 124.44C86.3055 124.44 86.3053 124.44 86.3051 124.44C86.3049 124.44 86.3048 124.44 86.3046 124.44C86.3044 124.44 86.3042 124.44 86.304 124.44C86.3038 124.44 86.3036 124.44 86.3034 124.44C86.3032 124.44 86.303 124.44 86.3028 124.44C86.3026 124.44 86.3024 124.44 86.3022 124.44C86.302 124.44 86.3019 124.44 86.3017 124.44C86.3015 124.44 86.3013 124.44 86.3011 124.44C86.3009 124.44 86.3007 124.44 86.3005 124.44C86.3003 124.44 86.3001 124.44 86.2999 124.44C86.2997 124.44 86.2995 124.44 86.2993 124.44C86.2991 124.44 86.2989 124.44 86.2987 124.44C86.2985 124.44 86.2983 124.44 86.2981 124.44C86.2979 124.44 86.2977 124.44 86.2975 124.44C86.2973 124.44 86.2971 124.44 86.2969 124.44C86.2967 124.44 86.2965 124.44 86.2963 124.44C86.2961 124.44 86.2959 124.44 86.2957 124.44C86.2955 124.44 86.2953 124.44 86.2951 124.44C86.2949 124.44 86.2946 124.44 86.2944 124.44C86.2942 124.44 86.294 124.44 86.2938 124.44C86.2936 124.44 86.2934 124.44 86.2932 124.44C86.293 124.44 86.2928 124.44 86.2926 124.44C86.2924 124.44 86.2922 124.44 86.292 124.44C86.2917 124.44 86.2915 124.44 86.2913 124.44C86.2911 124.44 86.2909 124.44 86.2907 124.44C86.2905 124.44 86.2903 124.44 86.2901 124.44C86.2898 124.44 86.2896 124.44 86.2894 124.44C86.2892 124.44 86.289 124.44 86.2888 124.44C86.2886 124.44 86.2884 124.44 86.2881 124.44C86.2879 124.44 86.2877 124.44 86.2875 124.44C86.2873 124.44 86.2871 124.44 86.2869 124.44C86.2866 124.44 86.2864 124.44 86.2862 124.44C86.286 124.44 86.2858 124.44 86.2856 124.44C86.2853 124.44 86.2851 124.44 86.2849 124.44C86.2847 124.44 86.2845 124.44 86.2842 124.44C86.284 124.44 86.2838 124.44 86.2836 124.44C86.2834 124.44 86.2831 124.44 86.2829 124.44C86.2827 124.44 86.2825 124.44 86.2823 124.44C86.282 124.44 86.2818 124.44 86.2816 124.44C86.2814 124.44 86.2812 124.44 86.2809 124.44C86.2807 124.44 86.2805 124.44 86.2803 124.44C86.28 124.44 86.2798 124.44 86.2796 124.44C86.2794 124.44 86.2791 124.44 86.2789 124.44C86.2787 124.44 86.2785 124.44 86.2782 124.44C86.278 124.44 86.2778 124.44 86.2775 124.44C86.2773 124.44 86.2771 124.44 86.2769 124.44C86.2766 124.44 86.2764 124.44 86.2762 124.44C86.276 124.44 86.2757 124.44 86.2755 124.44C86.2753 124.44 86.275 124.44 86.2748 124.44C86.2746 124.44 86.2743 124.44 86.2741 124.44C86.2739 124.44 86.2736 124.44 86.2734 124.44C86.2732 124.44 86.2729 124.44 86.2727 124.44C86.2725 124.44 86.2722 124.44 86.272 124.44C86.2718 124.44 86.2715 124.44 86.2713 124.44C86.2711 124.44 86.2708 124.44 86.2706 124.44C86.2704 124.44 86.2701 124.44 86.2699 124.44C86.2697 124.44 86.2694 124.44 86.2692 124.44C86.2689 124.44 86.2687 124.44 86.2685 124.44C86.2682 124.44 86.268 124.44 86.2678 124.44C86.2675 124.44 86.2673 124.44 86.267 124.44C86.2668 124.44 86.2666 124.44 86.2663 124.44C86.2661 124.44 86.2658 124.44 86.2656 124.44C86.2654 124.44 86.2651 124.44 86.2649 124.44C86.2646 124.44 86.2644 124.44 86.2641 124.44C86.2639 124.44 86.2636 124.44 86.2634 124.44C86.2632 124.44 86.2629 124.44 86.2627 124.44C86.2624 124.44 86.2622 124.44 86.2619 124.44C86.2617 124.44 86.2614 124.44 86.2612 124.44C86.2609 124.44 86.2607 124.44 86.2605 124.44C86.2602 124.44 86.26 124.44 86.2597 124.44C86.2595 124.44 86.2592 124.44 86.259 124.44C86.2587 124.44 86.2585 124.44 86.2582 124.44C86.258 124.44 86.2577 124.44 86.2575 124.44C86.2572 124.44 86.257 124.44 86.2567 124.44C86.2565 124.44 86.2562 124.44 86.256 124.44C86.2557 124.44 86.2554 124.44 86.2552 124.44C86.2549 124.44 86.2547 124.44 86.2544 124.44C86.2542 124.44 86.2539 124.44 86.2537 124.44C86.2534 124.44 86.2532 124.44 86.2529 124.44C86.2526 124.44 86.2524 124.44 86.2521 124.44C86.2519 124.44 86.2516 124.44 86.2514 124.44C86.2511 124.44 86.2508 124.44 86.2506 124.44C86.2503 124.44 86.2501 124.44 86.2498 124.44C86.2495 124.44 86.2493 124.44 86.249 124.44C86.2488 124.44 86.2485 124.44 86.2482 124.44C86.248 124.44 86.2477 124.44 86.2475 124.44C86.2472 124.44 86.2469 124.44 86.2467 124.44C86.2464 124.44 86.2461 124.44 86.2459 124.44C86.2456 124.44 86.2454 124.44 86.2451 124.44C86.2448 124.44 86.2446 124.44 86.2443 124.44C86.244 124.44 86.2438 124.44 86.2435 124.44C86.2432 124.44 86.243 124.44 86.2427 124.44C86.2424 124.44 86.2422 124.44 86.2419 124.44C86.2416 124.44 86.2414 124.44 86.2411 124.44C86.2408 124.44 86.2406 124.44 86.2403 124.44C86.24 124.44 86.2398 124.44 86.2395 124.44C86.2392 124.44 86.2389 124.44 86.2387 124.44C86.2384 124.44 86.2381 124.44 86.2379 124.44C86.2376 124.44 86.2373 124.44 86.237 124.44C86.2368 124.44 86.2365 124.44 86.2362 124.44C86.2359 124.44 86.2357 124.44 86.2354 124.44C86.2351 124.44 86.2348 124.44 86.2346 124.44C86.2343 124.44 86.234 124.44 86.2337 124.44C86.2335 124.44 86.2332 124.44 86.2329 124.44C86.2326 124.44 86.2324 124.44 86.2321 124.44C86.2318 124.44 86.2315 124.44 86.2312 124.44C86.231 124.44 86.2307 124.44 86.2304 124.44C86.2301 124.44 86.2299 124.44 86.2296 124.44C86.2293 124.44 86.229 124.44 86.2287 124.44C86.2284 124.44 86.2282 124.44 86.2279 124.44C86.2276 124.44 86.2273 124.44 86.227 124.44C86.2268 124.44 86.2265 124.44 86.2262 124.44C86.2259 124.44 86.2256 124.44 86.2253 124.44C86.2251 124.44 86.2248 124.44 86.2245 124.44C86.2242 124.44 86.2239 124.44 86.2236 124.44C86.2233 124.44 86.2231 124.44 86.2228 124.44C86.2225 124.44 86.2222 124.44 86.2219 124.44C86.2216 124.44 86.2213 124.44 86.221 124.44C86.2207 124.44 86.2205 124.44 86.2202 124.44C86.2199 124.44 86.2196 124.44 86.2193 124.44C86.219 124.44 86.2187 124.44 86.2184 124.44C86.2181 124.44 86.2178 124.44 86.2176 124.44C86.2173 124.44 86.217 124.44 86.2167 124.44C86.2164 124.44 86.2161 124.44 86.2158 124.44C86.2155 124.44 86.2152 124.44 86.2149 124.44C86.2146 124.44 86.2143 124.44 86.214 124.44C86.2137 124.44 86.2134 124.44 86.2131 124.44C86.2128 124.44 86.2125 124.44 86.2122 124.44C86.212 124.44 86.2117 124.44 86.2114 124.44C86.2111 124.44 86.2108 124.44 86.2105 124.44C86.2102 124.44 86.2099 124.44 86.2096 124.44C86.2093 124.44 86.209 124.44 86.2087 124.44C86.2084 124.44 86.2081 124.44 86.2078 124.44C86.2075 124.44 86.2072 124.44 86.2069 124.44C86.2066 124.44 86.2063 124.44 86.2059 124.44C86.2056 124.44 86.2053 124.44 86.205 124.44C86.2047 124.44 86.2044 124.44 86.2041 124.44C86.2038 124.44 86.2035 124.44 86.2032 124.44C86.2029 124.44 86.2026 124.44 86.2023 124.44C86.202 124.44 86.2017 124.44 86.2014 124.44C86.2011 124.44 86.2008 124.44 86.2004 124.44C86.2001 124.44 86.1998 124.44 86.1995 124.44C86.1992 124.44 86.1989 124.44 86.1986 124.44C86.1983 124.44 86.198 124.44 86.1977 124.44C86.1974 124.44 86.197 124.44 86.1967 124.44C86.1964 124.44 86.1961 124.44 86.1958 124.44C86.1955 124.44 86.1952 124.44 86.1949 124.44C86.1945 124.44 86.1942 124.44 86.1939 124.44C86.1936 124.44 86.1933 124.44 86.193 124.44C86.1927 124.44 86.1923 124.44 86.192 124.44C86.1917 124.44 86.1914 124.44 86.1911 124.44C86.1908 124.44 86.1905 124.44 86.1901 124.44C86.1898 124.44 86.1895 124.44 86.1892 124.44C86.1889 124.44 86.1885 124.44 86.1882 124.44C86.1879 124.44 86.1876 124.44 86.1873 124.44C86.187 124.44 86.1866 124.44 86.1863 124.44C86.186 124.44 86.1857 124.44 86.1853 124.44C86.185 124.44 86.1847 124.44 86.1844 124.44C86.1841 124.44 86.1837 124.44 86.1834 124.44C86.1831 124.44 86.1828 124.44 86.1824 124.44C86.1821 124.44 86.1818 124.44 86.1815 124.44C86.1811 124.44 86.1808 124.44 86.1805 124.44C86.1802 124.44 86.1798 124.44 86.1795 124.44C86.1792 124.44 86.1789 124.44 86.1785 124.44C86.1782 124.44 86.1779 124.44 86.1776 124.44C86.1772 124.44 86.1769 124.44 86.1766 124.44C86.1762 124.44 86.1759 124.44 86.1756 124.44C86.1752 124.44 86.1749 124.44 86.1746 124.44C86.1743 124.44 86.1739 124.44 86.1736 124.44C86.1733 124.44 86.1729 124.44 86.1726 124.44C86.1723 124.44 86.1719 124.44 86.1716 124.44C86.1713 124.44 86.1709 124.44 86.1706 124.44C86.1703 124.44 86.1699 124.44 86.1696 124.44C86.1693 124.44 86.1689 124.44 86.1686 124.44C86.1683 124.44 86.1679 124.44 86.1676 124.44C86.1672 124.44 86.1669 124.44 86.1666 124.44C86.1662 124.44 86.1659 124.44 86.1656 124.44C86.1652 124.44 86.1649 124.44 86.1645 124.44C86.1642 124.44 86.1639 124.44 86.1635 124.44C86.1632 124.44 86.1628 124.44 86.1625 124.44C86.1622 124.44 86.1618 124.44 86.1615 124.44C86.1611 124.44 86.1608 124.44 86.1605 124.44C86.1601 124.44 86.1598 124.44 86.1594 124.44C86.1591 124.44 86.1587 124.44 86.1584 124.44C86.1581 124.44 86.1577 124.44 86.1574 124.44C86.157 124.44 86.1567 124.44 86.1563 124.44C86.156 124.44 86.1556 124.44 86.1553 124.44C86.1549 124.44 86.1546 124.44 86.1542 124.44C86.1539 124.44 86.1535 124.44 86.1532 124.44C86.1528 124.44 86.1525 124.44 86.1522 124.44C86.1518 124.44 86.1515 124.44 86.1511 124.44C86.1508 124.44 86.1504 124.44 86.1501 124.44C86.1497 124.44 86.1494 124.44 86.149 124.44C86.1487 124.44 86.1483 124.44 86.1479 124.44C86.1476 124.44 86.1472 124.44 86.1469 124.44C86.1465 124.44 86.1462 124.44 86.1458 124.44C86.1455 124.44 86.1451 124.44 86.1448 124.44C86.1444 124.44 86.1441 124.44 86.1437 124.44C86.1433 124.44 86.143 124.44 86.1426 124.44C86.1423 124.44 86.1419 124.44 86.1416 124.44C86.1412 124.44 86.1408 124.44 86.1405 124.44C86.1401 124.44 86.1398 124.44 86.1394 124.44C86.139 124.44 86.1387 124.44 86.1383 124.44C86.138 124.44 86.1376 124.44 86.1372 124.44C86.1369 124.44 86.1365 124.44 86.1362 124.44C86.1358 124.44 86.1354 124.44 86.1351 124.44C86.1347 124.44 86.1343 124.44 86.134 124.44C86.1336 124.44 86.1333 124.44 86.1329 124.44C86.1325 124.44 86.1322 124.44 86.1318 124.44C86.1314 124.44 86.1311 124.44 86.1307 124.44C86.1303 124.44 86.13 124.44 86.1296 124.44C86.1292 124.44 86.1289 124.44 86.1285 124.44C86.1281 124.44 86.1278 124.44 86.1274 124.44C86.127 124.44 86.1267 124.44 86.1263 124.44C86.1259 124.44 86.1255 124.44 86.1252 124.44C86.1248 124.44 86.1244 124.44 86.1241 124.44C86.1237 124.44 86.1233 124.44 86.123 124.44C86.1226 124.44 86.1222 124.44 86.1218 124.44C86.1215 124.44 86.1211 124.44 86.1207 124.44C86.1203 124.44 86.12 124.44 86.1196 124.44C86.1192 124.44 86.1189 124.44 86.1185 124.44C86.1181 124.44 86.1177 124.44 86.1173 124.44C86.117 124.44 86.1166 124.44 86.1162 124.44C86.1158 124.44 86.1155 124.44 86.1151 124.44C86.1147 124.44 86.1143 124.44 86.114 124.44C86.1136 124.44 86.1132 124.44 86.1128 124.44C86.1124 124.44 86.1121 124.44 86.1117 124.44C86.1113 124.44 86.1109 124.44 86.1105 124.44C86.1102 124.44 86.1098 124.44 86.1094 124.44C86.109 124.44 86.1086 124.44 86.1082 124.44C86.1079 124.44 86.1075 124.44 86.1071 124.44C86.1067 124.44 86.1063 124.44 86.1059 124.44C86.1056 124.44 86.1052 124.44 86.1048 124.44C86.1044 124.44 86.104 124.44 86.1036 124.44C86.1032 124.44 86.1029 124.44 86.1025 124.44C86.1021 124.44 86.1017 124.44 86.1013 124.44C86.1009 124.44 86.1005 124.44 86.1001 124.44C86.0998 124.44 86.0994 124.44 86.099 124.44C86.0986 124.44 86.0982 124.44 86.0978 124.44C86.0974 124.44 86.097 124.44 86.0966 124.44C86.0962 124.44 86.0959 124.44 86.0955 124.44C86.0951 124.44 86.0947 124.44 86.0943 124.44C86.0939 124.44 86.0935 124.44 86.0931 124.44C86.0927 124.44 86.0923 124.44 86.0919 124.44C86.0915 124.44 86.0911 124.44 86.0907 124.44C86.0903 124.44 86.09 124.44 86.0896 124.44C86.0892 124.44 86.0888 124.44 86.0884 124.44C86.088 124.44 86.0876 124.44 86.0872 124.44C86.0868 124.44 86.0864 124.44 86.086 124.44C86.0856 124.44 86.0852 124.44 86.0848 124.44C86.0844 124.44 86.084 124.44 86.0836 124.44C86.0832 124.44 86.0828 124.44 86.0824 124.44C86.082 124.44 86.0816 124.44 86.0812 124.44C86.0808 124.44 86.0804 124.44 86.08 124.44C86.0796 124.44 86.0792 124.44 86.0788 124.44C86.0784 124.44 86.0779 124.44 86.0775 124.44C86.0771 124.44 86.0767 124.44 86.0763 124.44C86.0759 124.44 86.0755 124.44 86.0751 124.44C86.0747 124.44 86.0743 124.44 86.0739 124.44C86.0735 124.44 86.0731 124.44 86.0727 124.44C86.0723 124.44 86.0719 124.44 86.0714 124.44C86.071 124.44 86.0706 124.44 86.0702 124.44C86.0698 124.44 86.0694 124.44 86.069 124.44C86.0686 124.44 86.0682 124.44 86.0678 124.44C86.0673 124.44 86.0669 124.44 86.0665 124.44C86.0661 124.44 86.0657 124.44 86.0653 124.44C86.0649 124.44 86.0645 124.44 86.064 124.44C86.0636 124.44 86.0632 124.44 86.0628 124.44C86.0624 124.44 86.062 124.44 86.0616 124.44C86.0611 124.44 86.0607 124.44 86.0603 124.44C86.0599 124.44 86.0595 124.44 86.0591 124.44C86.0586 124.44 86.0582 124.44 86.0578 124.44C86.0574 124.44 86.057 124.44 86.0565 124.44C86.0561 124.44 86.0557 124.44 86.0553 124.44C86.0549 124.44 86.0545 124.44 86.054 124.44C86.0536 124.44 86.0532 124.44 86.0528 124.44C86.0523 124.44 86.0519 124.44 86.0515 124.44C86.0511 124.44 86.0507 124.44 86.0502 124.44C86.0498 124.44 86.0494 124.44 86.049 124.44C86.0485 124.44 86.0481 124.44 86.0477 124.44C86.0473 124.44 86.0468 124.44 86.0464 124.44C86.046 124.44 86.0456 124.44 86.0451 124.44C86.0447 124.44 86.0443 124.44 86.0439 124.44C86.0434 124.44 86.043 124.44 86.0426 124.44C86.0422 124.44 86.0417 124.44 86.0413 124.44C86.0409 124.44 86.0404 124.44 86.04 124.44V126.44C86.0404 126.44 86.0409 126.44 86.0413 126.44C86.0417 126.44 86.0422 126.44 86.0426 126.44C86.043 126.44 86.0434 126.44 86.0439 126.44C86.0443 126.44 86.0447 126.44 86.0451 126.44C86.0456 126.44 86.046 126.44 86.0464 126.44C86.0468 126.44 86.0473 126.44 86.0477 126.44C86.0481 126.44 86.0485 126.44 86.049 126.44C86.0494 126.44 86.0498 126.44 86.0502 126.44C86.0507 126.44 86.0511 126.44 86.0515 126.44C86.0519 126.44 86.0523 126.44 86.0528 126.44C86.0532 126.44 86.0536 126.44 86.054 126.44C86.0545 126.44 86.0549 126.44 86.0553 126.44C86.0557 126.44 86.0561 126.44 86.0565 126.44C86.057 126.44 86.0574 126.44 86.0578 126.44C86.0582 126.44 86.0586 126.44 86.0591 126.44C86.0595 126.44 86.0599 126.44 86.0603 126.44C86.0607 126.44 86.0611 126.44 86.0616 126.44C86.062 126.44 86.0624 126.44 86.0628 126.44C86.0632 126.44 86.0636 126.44 86.064 126.44C86.0645 126.44 86.0649 126.44 86.0653 126.44C86.0657 126.44 86.0661 126.44 86.0665 126.44C86.0669 126.44 86.0673 126.44 86.0678 126.44C86.0682 126.44 86.0686 126.44 86.069 126.44C86.0694 126.44 86.0698 126.44 86.0702 126.44C86.0706 126.44 86.071 126.44 86.0714 126.44C86.0719 126.44 86.0723 126.44 86.0727 126.44C86.0731 126.44 86.0735 126.44 86.0739 126.44C86.0743 126.44 86.0747 126.44 86.0751 126.44C86.0755 126.44 86.0759 126.44 86.0763 126.44C86.0767 126.44 86.0771 126.44 86.0775 126.44C86.0779 126.44 86.0784 126.44 86.0788 126.44C86.0792 126.44 86.0796 126.44 86.08 126.44C86.0804 126.44 86.0808 126.44 86.0812 126.44C86.0816 126.44 86.082 126.44 86.0824 126.44C86.0828 126.44 86.0832 126.44 86.0836 126.44C86.084 126.44 86.0844 126.44 86.0848 126.44C86.0852 126.44 86.0856 126.44 86.086 126.44C86.0864 126.44 86.0868 126.44 86.0872 126.44C86.0876 126.44 86.088 126.44 86.0884 126.44C86.0888 126.44 86.0892 126.44 86.0896 126.44C86.09 126.44 86.0903 126.44 86.0907 126.44C86.0911 126.44 86.0915 126.44 86.0919 126.44C86.0923 126.44 86.0927 126.44 86.0931 126.44C86.0935 126.44 86.0939 126.44 86.0943 126.44C86.0947 126.44 86.0951 126.44 86.0955 126.44C86.0959 126.44 86.0962 126.44 86.0966 126.44C86.097 126.44 86.0974 126.44 86.0978 126.44C86.0982 126.44 86.0986 126.44 86.099 126.44C86.0994 126.44 86.0998 126.44 86.1001 126.44C86.1005 126.44 86.1009 126.44 86.1013 126.44C86.1017 126.44 86.1021 126.44 86.1025 126.44C86.1029 126.44 86.1032 126.44 86.1036 126.44C86.104 126.44 86.1044 126.44 86.1048 126.44C86.1052 126.44 86.1056 126.44 86.1059 126.44C86.1063 126.44 86.1067 126.44 86.1071 126.44C86.1075 126.44 86.1079 126.44 86.1082 126.44C86.1086 126.44 86.109 126.44 86.1094 126.44C86.1098 126.44 86.1102 126.44 86.1105 126.44C86.1109 126.44 86.1113 126.44 86.1117 126.44C86.1121 126.44 86.1124 126.44 86.1128 126.44C86.1132 126.44 86.1136 126.44 86.114 126.44C86.1143 126.44 86.1147 126.44 86.1151 126.44C86.1155 126.44 86.1158 126.44 86.1162 126.44C86.1166 126.44 86.117 126.44 86.1173 126.44C86.1177 126.44 86.1181 126.44 86.1185 126.44C86.1189 126.44 86.1192 126.44 86.1196 126.44C86.12 126.44 86.1203 126.44 86.1207 126.44C86.1211 126.44 86.1215 126.44 86.1218 126.44C86.1222 126.44 86.1226 126.44 86.123 126.44C86.1233 126.44 86.1237 126.44 86.1241 126.44C86.1244 126.44 86.1248 126.44 86.1252 126.44C86.1255 126.44 86.1259 126.44 86.1263 126.44C86.1267 126.44 86.127 126.44 86.1274 126.44C86.1278 126.44 86.1281 126.44 86.1285 126.44C86.1289 126.44 86.1292 126.44 86.1296 126.44C86.13 126.44 86.1303 126.44 86.1307 126.44C86.1311 126.44 86.1314 126.44 86.1318 126.44C86.1322 126.44 86.1325 126.44 86.1329 126.44C86.1333 126.44 86.1336 126.44 86.134 126.44C86.1343 126.44 86.1347 126.44 86.1351 126.44C86.1354 126.44 86.1358 126.44 86.1362 126.44C86.1365 126.44 86.1369 126.44 86.1372 126.44C86.1376 126.44 86.138 126.44 86.1383 126.44C86.1387 126.44 86.139 126.44 86.1394 126.44C86.1398 126.44 86.1401 126.44 86.1405 126.44C86.1408 126.44 86.1412 126.44 86.1416 126.44C86.1419 126.44 86.1423 126.44 86.1426 126.44C86.143 126.44 86.1433 126.44 86.1437 126.44C86.1441 126.44 86.1444 126.44 86.1448 126.44C86.1451 126.44 86.1455 126.44 86.1458 126.44C86.1462 126.44 86.1465 126.44 86.1469 126.44C86.1472 126.44 86.1476 126.44 86.1479 126.44C86.1483 126.44 86.1487 126.44 86.149 126.44C86.1494 126.44 86.1497 126.44 86.1501 126.44C86.1504 126.44 86.1508 126.44 86.1511 126.44C86.1515 126.44 86.1518 126.44 86.1522 126.44C86.1525 126.44 86.1528 126.44 86.1532 126.44C86.1535 126.44 86.1539 126.44 86.1542 126.44C86.1546 126.44 86.1549 126.44 86.1553 126.44C86.1556 126.44 86.156 126.44 86.1563 126.44C86.1567 126.44 86.157 126.44 86.1574 126.44C86.1577 126.44 86.1581 126.44 86.1584 126.44C86.1587 126.44 86.1591 126.44 86.1594 126.44C86.1598 126.44 86.1601 126.44 86.1605 126.44C86.1608 126.44 86.1611 126.44 86.1615 126.44C86.1618 126.44 86.1622 126.44 86.1625 126.44C86.1628 126.44 86.1632 126.44 86.1635 126.44C86.1639 126.44 86.1642 126.44 86.1645 126.44C86.1649 126.44 86.1652 126.44 86.1656 126.44C86.1659 126.44 86.1662 126.44 86.1666 126.44C86.1669 126.44 86.1672 126.44 86.1676 126.44C86.1679 126.44 86.1683 126.44 86.1686 126.44C86.1689 126.44 86.1693 126.44 86.1696 126.44C86.1699 126.44 86.1703 126.44 86.1706 126.44C86.1709 126.44 86.1713 126.44 86.1716 126.44C86.1719 126.44 86.1723 126.44 86.1726 126.44C86.1729 126.44 86.1733 126.44 86.1736 126.44C86.1739 126.44 86.1743 126.44 86.1746 126.44C86.1749 126.44 86.1752 126.44 86.1756 126.44C86.1759 126.44 86.1762 126.44 86.1766 126.44C86.1769 126.44 86.1772 126.44 86.1776 126.44C86.1779 126.44 86.1782 126.44 86.1785 126.44C86.1789 126.44 86.1792 126.44 86.1795 126.44C86.1798 126.44 86.1802 126.44 86.1805 126.44C86.1808 126.44 86.1811 126.44 86.1815 126.44C86.1818 126.44 86.1821 126.44 86.1824 126.44C86.1828 126.44 86.1831 126.44 86.1834 126.44C86.1837 126.44 86.1841 126.44 86.1844 126.44C86.1847 126.44 86.185 126.44 86.1853 126.44C86.1857 126.44 86.186 126.44 86.1863 126.44C86.1866 126.44 86.187 126.44 86.1873 126.44C86.1876 126.44 86.1879 126.44 86.1882 126.44C86.1885 126.44 86.1889 126.44 86.1892 126.44C86.1895 126.44 86.1898 126.44 86.1901 126.44C86.1905 126.44 86.1908 126.44 86.1911 126.44C86.1914 126.44 86.1917 126.44 86.192 126.44C86.1923 126.44 86.1927 126.44 86.193 126.44C86.1933 126.44 86.1936 126.44 86.1939 126.44C86.1942 126.44 86.1945 126.44 86.1949 126.44C86.1952 126.44 86.1955 126.44 86.1958 126.44C86.1961 126.44 86.1964 126.44 86.1967 126.44C86.197 126.44 86.1974 126.44 86.1977 126.44C86.198 126.44 86.1983 126.44 86.1986 126.44C86.1989 126.44 86.1992 126.44 86.1995 126.44C86.1998 126.44 86.2001 126.44 86.2004 126.44C86.2008 126.44 86.2011 126.44 86.2014 126.44C86.2017 126.44 86.202 126.44 86.2023 126.44C86.2026 126.44 86.2029 126.44 86.2032 126.44C86.2035 126.44 86.2038 126.44 86.2041 126.44C86.2044 126.44 86.2047 126.44 86.205 126.44C86.2053 126.44 86.2056 126.44 86.2059 126.44C86.2063 126.44 86.2066 126.44 86.2069 126.44C86.2072 126.44 86.2075 126.44 86.2078 126.44C86.2081 126.44 86.2084 126.44 86.2087 126.44C86.209 126.44 86.2093 126.44 86.2096 126.44C86.2099 126.44 86.2102 126.44 86.2105 126.44C86.2108 126.44 86.2111 126.44 86.2114 126.44C86.2117 126.44 86.212 126.44 86.2122 126.44C86.2125 126.44 86.2128 126.44 86.2131 126.44C86.2134 126.44 86.2137 126.44 86.214 126.44C86.2143 126.44 86.2146 126.44 86.2149 126.44C86.2152 126.44 86.2155 126.44 86.2158 126.44C86.2161 126.44 86.2164 126.44 86.2167 126.44C86.217 126.44 86.2173 126.44 86.2176 126.44C86.2178 126.44 86.2181 126.44 86.2184 126.44C86.2187 126.44 86.219 126.44 86.2193 126.44C86.2196 126.44 86.2199 126.44 86.2202 126.44C86.2205 126.44 86.2207 126.44 86.221 126.44C86.2213 126.44 86.2216 126.44 86.2219 126.44C86.2222 126.44 86.2225 126.44 86.2228 126.44C86.2231 126.44 86.2233 126.44 86.2236 126.44C86.2239 126.44 86.2242 126.44 86.2245 126.44C86.2248 126.44 86.2251 126.44 86.2253 126.44C86.2256 126.44 86.2259 126.44 86.2262 126.44C86.2265 126.44 86.2268 126.44 86.227 126.44C86.2273 126.44 86.2276 126.44 86.2279 126.44C86.2282 126.44 86.2284 126.44 86.2287 126.44C86.229 126.44 86.2293 126.44 86.2296 126.44C86.2299 126.44 86.2301 126.44 86.2304 126.44C86.2307 126.44 86.231 126.44 86.2312 126.44C86.2315 126.44 86.2318 126.44 86.2321 126.44C86.2324 126.44 86.2326 126.44 86.2329 126.44C86.2332 126.44 86.2335 126.44 86.2337 126.44C86.234 126.44 86.2343 126.44 86.2346 126.44C86.2348 126.44 86.2351 126.44 86.2354 126.44C86.2357 126.44 86.2359 126.44 86.2362 126.44C86.2365 126.44 86.2368 126.44 86.237 126.44C86.2373 126.44 86.2376 126.44 86.2379 126.44C86.2381 126.44 86.2384 126.44 86.2387 126.44C86.2389 126.44 86.2392 126.44 86.2395 126.44C86.2398 126.44 86.24 126.44 86.2403 126.44C86.2406 126.44 86.2408 126.44 86.2411 126.44C86.2414 126.44 86.2416 126.44 86.2419 126.44C86.2422 126.44 86.2424 126.44 86.2427 126.44C86.243 126.44 86.2432 126.44 86.2435 126.44C86.2438 126.44 86.244 126.44 86.2443 126.44C86.2446 126.44 86.2448 126.44 86.2451 126.44C86.2454 126.44 86.2456 126.44 86.2459 126.44C86.2461 126.44 86.2464 126.44 86.2467 126.44C86.2469 126.44 86.2472 126.44 86.2475 126.44C86.2477 126.44 86.248 126.44 86.2482 126.44C86.2485 126.44 86.2488 126.44 86.249 126.44C86.2493 126.44 86.2495 126.44 86.2498 126.44C86.2501 126.44 86.2503 126.44 86.2506 126.44C86.2508 126.44 86.2511 126.44 86.2514 126.44C86.2516 126.44 86.2519 126.44 86.2521 126.44C86.2524 126.44 86.2526 126.44 86.2529 126.44C86.2532 126.44 86.2534 126.44 86.2537 126.44C86.2539 126.44 86.2542 126.44 86.2544 126.44C86.2547 126.44 86.2549 126.44 86.2552 126.44C86.2554 126.44 86.2557 126.44 86.256 126.44C86.2562 126.44 86.2565 126.44 86.2567 126.44C86.257 126.44 86.2572 126.44 86.2575 126.44C86.2577 126.44 86.258 126.44 86.2582 126.44C86.2585 126.44 86.2587 126.44 86.259 126.44C86.2592 126.44 86.2595 126.44 86.2597 126.44C86.26 126.44 86.2602 126.44 86.2605 126.44C86.2607 126.44 86.2609 126.44 86.2612 126.44C86.2614 126.44 86.2617 126.44 86.2619 126.44C86.2622 126.44 86.2624 126.44 86.2627 126.44C86.2629 126.44 86.2632 126.44 86.2634 126.44C86.2636 126.44 86.2639 126.44 86.2641 126.44C86.2644 126.44 86.2646 126.44 86.2649 126.44C86.2651 126.44 86.2654 126.44 86.2656 126.44C86.2658 126.44 86.2661 126.44 86.2663 126.44C86.2666 126.44 86.2668 126.44 86.267 126.44C86.2673 126.44 86.2675 126.44 86.2678 126.44C86.268 126.44 86.2682 126.44 86.2685 126.44C86.2687 126.44 86.2689 126.44 86.2692 126.44C86.2694 126.44 86.2697 126.44 86.2699 126.44C86.2701 126.44 86.2704 126.44 86.2706 126.44C86.2708 126.44 86.2711 126.44 86.2713 126.44C86.2715 126.44 86.2718 126.44 86.272 126.44C86.2722 126.44 86.2725 126.44 86.2727 126.44C86.2729 126.44 86.2732 126.44 86.2734 126.44C86.2736 126.44 86.2739 126.44 86.2741 126.44C86.2743 126.44 86.2746 126.44 86.2748 126.44C86.275 126.44 86.2753 126.44 86.2755 126.44C86.2757 126.44 86.276 126.44 86.2762 126.44C86.2764 126.44 86.2766 126.44 86.2769 126.44C86.2771 126.44 86.2773 126.44 86.2775 126.44C86.2778 126.44 86.278 126.44 86.2782 126.44C86.2785 126.44 86.2787 126.44 86.2789 126.44C86.2791 126.44 86.2794 126.44 86.2796 126.44C86.2798 126.44 86.28 126.44 86.2803 126.44C86.2805 126.44 86.2807 126.44 86.2809 126.44C86.2812 126.44 86.2814 126.44 86.2816 126.44C86.2818 126.44 86.282 126.44 86.2823 126.44C86.2825 126.44 86.2827 126.44 86.2829 126.44C86.2831 126.44 86.2834 126.44 86.2836 126.44C86.2838 126.44 86.284 126.44 86.2842 126.44C86.2845 126.44 86.2847 126.44 86.2849 126.44C86.2851 126.44 86.2853 126.44 86.2856 126.44C86.2858 126.44 86.286 126.44 86.2862 126.44C86.2864 126.44 86.2866 126.44 86.2869 126.44C86.2871 126.44 86.2873 126.44 86.2875 126.44C86.2877 126.44 86.2879 126.44 86.2881 126.44C86.2884 126.44 86.2886 126.44 86.2888 126.44C86.289 126.44 86.2892 126.44 86.2894 126.44C86.2896 126.44 86.2898 126.44 86.2901 126.44C86.2903 126.44 86.2905 126.44 86.2907 126.44C86.2909 126.44 86.2911 126.44 86.2913 126.44C86.2915 126.44 86.2917 126.44 86.292 126.44C86.2922 126.44 86.2924 126.44 86.2926 126.44C86.2928 126.44 86.293 126.44 86.2932 126.44C86.2934 126.44 86.2936 126.44 86.2938 126.44C86.294 126.44 86.2942 126.44 86.2944 126.44C86.2946 126.44 86.2949 126.44 86.2951 126.44C86.2953 126.44 86.2955 126.44 86.2957 126.44C86.2959 126.44 86.2961 126.44 86.2963 126.44C86.2965 126.44 86.2967 126.44 86.2969 126.44C86.2971 126.44 86.2973 126.44 86.2975 126.44C86.2977 126.44 86.2979 126.44 86.2981 126.44C86.2983 126.44 86.2985 126.44 86.2987 126.44C86.2989 126.44 86.2991 126.44 86.2993 126.44C86.2995 126.44 86.2997 126.44 86.2999 126.44C86.3001 126.44 86.3003 126.44 86.3005 126.44C86.3007 126.44 86.3009 126.44 86.3011 126.44C86.3013 126.44 86.3015 126.44 86.3017 126.44C86.3019 126.44 86.302 126.44 86.3022 126.44C86.3024 126.44 86.3026 126.44 86.3028 126.44C86.303 126.44 86.3032 126.44 86.3034 126.44C86.3036 126.44 86.3038 126.44 86.304 126.44C86.3042 126.44 86.3044 126.44 86.3046 126.44C86.3048 126.44 86.3049 126.44 86.3051 126.44C86.3053 126.44 86.3055 126.44 86.3057 126.44C86.3059 126.44 86.3061 126.44 86.3063 126.44C86.3065 126.44 86.3066 126.44 86.3068 126.44C86.307 126.44 86.3072 126.44 86.3074 126.44C86.3076 126.44 86.3078 126.44 86.308 126.44C86.3082 126.44 86.3083 126.44 86.3085 126.44C86.3087 126.44 86.3089 126.44 86.3091 126.44C86.3093 126.44 86.3094 126.44 86.3096 126.44C86.3098 126.44 86.31 126.44 86.3102 126.44C86.3104 126.44 86.3105 126.44 86.3107 126.44C86.3109 126.44 86.3111 126.44 86.3113 126.44C86.3114 126.44 86.3116 126.44 86.3118 126.44C86.312 126.44 86.3122 126.44 86.3124 126.44C86.3125 126.44 86.3127 126.44 86.3129 126.44C86.3131 126.44 86.3132 126.44 86.3134 126.44C86.3136 126.44 86.3138 126.44 86.314 126.44C86.3141 126.44 86.3143 126.44 86.3145 126.44C86.3147 126.44 86.3148 126.44 86.315 126.44C86.3152 126.44 86.3154 126.44 86.3155 126.44C86.3157 126.44 86.3159 126.44 86.3161 126.44C86.3162 126.44 86.3164 126.44 86.3166 126.44C86.3168 126.44 86.3169 126.44 86.3171 126.44C86.3173 126.44 86.3174 126.44 86.3176 126.44C86.3178 126.44 86.318 126.44 86.3181 126.44C86.3183 126.44 86.3185 126.44 86.3186 126.44C86.3188 126.44 86.319 126.44 86.3191 126.44C86.3193 126.44 86.3195 126.44 86.3196 126.44C86.3198 126.44 86.32 126.44 86.3202 126.44C86.3203 126.44 86.3205 126.44 86.3206 126.44C86.3208 126.44 86.321 126.44 86.3211 126.44C86.3213 126.44 86.3215 126.44 86.3216 126.44C86.3218 126.44 86.322 126.44 86.3221 126.44C86.3223 126.44 86.3225 126.44 86.3226 126.44C86.3228 126.44 86.323 126.44 86.3231 126.44C86.3233 126.44 86.3234 126.44 86.3236 126.44C86.3238 126.44 86.3239 126.44 86.3241 126.44C86.3242 126.44 86.3244 126.44 86.3246 126.44C86.3247 126.44 86.3249 126.44 86.325 126.44C86.3252 126.44 86.3253 126.44 86.3255 126.44C86.3257 126.44 86.3258 126.44 86.326 126.44C86.3261 126.44 86.3263 126.44 86.3265 126.44C86.3266 126.44 86.3268 126.44 86.3269 126.44C86.3271 126.44 86.3272 126.44 86.3274 126.44C86.3275 126.44 86.3277 126.44 86.3278 126.44C86.328 126.44 86.3281 126.44 86.3283 126.44C86.3285 126.44 86.3286 126.44 86.3288 126.44C86.3289 126.44 86.3291 126.44 86.3292 126.44C86.3294 126.44 86.3295 126.44 86.3297 126.44C86.3298 126.44 86.33 126.44 86.3301 126.44C86.3303 126.44 86.3304 126.44 86.3306 126.44C86.3307 126.44 86.3309 126.44 86.331 126.44C86.3312 126.44 86.3313 126.44 86.3315 126.44C86.3316 126.44 86.3317 126.44 86.3319 126.44C86.332 126.44 86.3322 126.44 86.3323 126.44C86.3325 126.44 86.3326 126.44 86.3328 126.44C86.3329 126.44 86.333 126.44 86.3332 126.44C86.3333 126.44 86.3335 126.44 86.3336 126.44C86.3338 126.44 86.3339 126.44 86.334 126.44C86.3342 126.44 86.3343 126.44 86.3345 126.44C86.3346 126.44 86.3348 126.44 86.3349 126.44C86.335 126.44 86.3352 126.44 86.3353 126.44C86.3354 126.44 86.3356 126.44 86.3357 126.44C86.3359 126.44 86.336 126.44 86.3361 126.44C86.3363 126.44 86.3364 126.44 86.3366 126.44C86.3367 126.44 86.3368 126.44 86.337 126.44C86.3371 126.44 86.3372 126.44 86.3374 126.44C86.3375 126.44 86.3376 126.44 86.3378 126.44C86.3379 126.44 86.338 126.44 86.3382 126.44C86.3383 126.44 86.3384 126.44 86.3386 126.44C86.3387 126.44 86.3388 126.44 86.339 126.44C86.3391 126.44 86.3392 126.44 86.3394 126.44C86.3395 126.44 86.3396 126.44 86.3398 126.44C86.3399 126.44 86.34 126.44 86.3401 126.44C86.3403 126.44 86.3404 126.44 86.3405 126.44C86.3407 126.44 86.3408 126.44 86.3409 126.44C86.341 126.44 86.3412 126.44 86.3413 126.44C86.3414 126.44 86.3416 126.44 86.3417 126.44C86.3418 126.44 86.3419 126.44 86.3421 126.44C86.3422 126.44 86.3423 126.44 86.3424 126.44C86.3426 126.44 86.3427 126.44 86.3428 126.44C86.3429 126.44 86.343 126.44 86.3432 126.44C86.3433 126.44 86.3434 126.44 86.3435 126.44C86.3437 126.44 86.3438 126.44 86.3439 126.44C86.344 126.44 86.3441 126.44 86.3443 126.44C86.3444 126.44 86.3445 126.44 86.3446 126.44C86.3447 126.44 86.3449 126.44 86.345 126.44C86.3451 126.44 86.3452 126.44 86.3453 126.44C86.3454 126.44 86.3456 126.44 86.3457 126.44C86.3458 126.44 86.3459 126.44 86.346 126.44C86.3461 126.44 86.3463 126.44 86.3464 126.44C86.3465 126.44 86.3466 126.44 86.3467 126.44C86.3468 126.44 86.3469 126.44 86.3471 126.44C86.3472 126.44 86.3473 126.44 86.3474 126.44C86.3475 126.44 86.3476 126.44 86.3477 126.44C86.3478 126.44 86.348 126.44 86.3481 126.44C86.3482 126.44 86.3483 126.44 86.3484 126.44C86.3485 126.44 86.3486 126.44 86.3487 126.44C86.3488 126.44 86.3489 126.44 86.3491 126.44C86.3492 126.44 86.3493 126.44 86.3494 126.44C86.3495 126.44 86.3496 126.44 86.3497 126.44C86.3498 126.44 86.3499 126.44 86.35 126.44C86.3501 126.44 86.3502 126.44 86.3503 126.44C86.3504 126.44 86.3505 126.44 86.3506 126.44C86.3507 126.44 86.3509 126.44 86.351 126.44C86.3511 126.44 86.3512 126.44 86.3513 126.44C86.3514 126.44 86.3515 126.44 86.3516 126.44C86.3517 126.44 86.3518 126.44 86.3519 126.44C86.352 126.44 86.3521 126.44 86.3522 126.44C86.3523 126.44 86.3524 126.44 86.3525 126.44C86.3526 126.44 86.3527 126.44 86.3528 126.44C86.3529 126.44 86.353 126.44 86.3531 126.44C86.3532 126.44 86.3533 126.44 86.3534 126.44C86.3534 126.44 86.3535 126.44 86.3536 126.44C86.3537 126.44 86.3538 126.44 86.3539 126.44C86.354 126.44 86.3541 126.44 86.3542 126.44C86.3543 126.44 86.3544 126.44 86.3545 126.44C86.3546 126.44 86.3547 126.44 86.3548 126.44C86.3549 126.44 86.355 126.44 86.355 126.44C86.3551 126.44 86.3552 126.44 86.3553 126.44C86.3554 126.44 86.3555 126.44 86.3556 126.44C86.3557 126.44 86.3558 126.44 86.3559 126.44C86.3559 126.44 86.356 126.44 86.3561 126.44C86.3562 126.44 86.3563 126.44 86.3564 126.44C86.3565 126.44 86.3566 126.44 86.3566 126.44C86.3567 126.44 86.3568 126.44 86.3569 126.44C86.357 126.44 86.3571 126.44 86.3572 126.44C86.3572 126.44 86.3573 126.44 86.3574 126.44C86.3575 126.44 86.3576 126.44 86.3577 126.44C86.3577 126.44 86.3578 126.44 86.3579 126.44C86.358 126.44 86.3581 126.44 86.3582 126.44C86.3582 126.44 86.3583 126.44 86.3584 126.44C86.3585 126.44 86.3586 126.44 86.3586 126.44C86.3587 126.44 86.3588 126.44 86.3589 126.44C86.359 126.44 86.359 126.44 86.3591 126.44C86.3592 126.44 86.3593 126.44 86.3593 126.44C86.3594 126.44 86.3595 126.44 86.3596 126.44C86.3596 126.44 86.3597 126.44 86.3598 126.44C86.3599 126.44 86.36 126.44 86.36 126.44C86.3601 126.44 86.3602 126.44 86.3603 126.44C86.3603 126.44 86.3604 126.44 86.3605 126.44C86.3605 126.44 86.3606 126.44 86.3607 126.44C86.3608 126.44 86.3608 126.44 86.3609 126.44C86.361 126.44 86.361 126.44 86.3611 126.44C86.3612 126.44 86.3613 126.44 86.3613 126.44C86.3614 126.44 86.3615 126.44 86.3615 126.44C86.3616 126.44 86.3617 126.44 86.3617 126.44C86.3618 126.44 86.3619 126.44 86.3619 126.44C86.362 126.44 86.3621 126.44 86.3621 126.44C86.3622 126.44 86.3623 126.44 86.3623 126.44C86.3624 126.44 86.3625 126.44 86.3625 126.44C86.3626 126.44 86.3627 126.44 86.3627 126.44C86.3628 126.44 86.3629 126.44 86.3629 126.44C86.363 126.44 86.363 126.44 86.3631 126.44C86.3632 126.44 86.3632 126.44 86.3633 126.44C86.3634 126.44 86.3634 126.44 86.3635 126.44C86.3635 126.44 86.3636 126.44 86.3637 126.44C86.3637 126.44 86.3638 126.44 86.3638 126.44C86.3639 126.44 86.364 126.44 86.364 126.44C86.3641 126.44 86.3641 126.44 86.3642 126.44C86.3642 126.44 86.3643 126.44 86.3643 126.44C86.3644 126.44 86.3645 126.44 86.3645 126.44C86.3646 126.44 86.3646 126.44 86.3647 126.44C86.3647 126.44 86.3648 126.44 86.3648 126.44C86.3649 126.44 86.365 126.44 86.365 126.44C86.3651 126.44 86.3651 126.44 86.3652 126.44C86.3652 126.44 86.3653 126.44 86.3653 126.44C86.3654 126.44 86.3654 126.44 86.3655 126.44C86.3655 126.44 86.3656 126.44 86.3656 126.44C86.3657 126.44 86.3657 126.44 86.3658 126.44C86.3658 126.44 86.3659 126.44 86.3659 126.44C86.366 126.44 86.366 126.44 86.3661 126.44C86.3661 126.44 86.3661 126.44 86.3662 126.44C86.3662 126.44 86.3663 126.44 86.3663 126.44C86.3664 126.44 86.3664 126.44 86.3665 126.44C86.3665 126.44 86.3666 126.44 86.3666 126.44C86.3666 126.44 86.3667 126.44 86.3667 126.44C86.3668 126.44 86.3668 126.44 86.3669 126.44C86.3669 126.44 86.3669 126.44 86.367 126.44C86.367 126.44 86.3671 126.44 86.3671 126.44C86.3671 126.44 86.3672 126.44 86.3672 126.44C86.3673 126.44 86.3673 126.44 86.3673 126.44C86.3674 126.44 86.3674 126.44 86.3675 126.44C86.3675 126.44 86.3675 126.44 86.3676 126.44C86.3676 126.44 86.3676 126.44 86.3677 126.44C86.3677 126.44 86.3677 126.44 86.3678 126.44C86.3678 126.44 86.3679 126.44 86.3679 126.44C86.3679 126.44 86.368 126.44 86.368 126.44C86.368 126.44 86.3681 126.44 86.3681 126.44C86.3681 126.44 86.3681 126.44 86.3682 126.44C86.3682 126.44 86.3682 126.44 86.3683 126.44C86.3683 126.44 86.3683 126.44 86.3684 126.44C86.3684 126.44 86.3684 126.44 86.3685 126.44C86.3685 126.44 86.3685 126.44 86.3685 126.44C86.3686 126.44 86.3686 126.44 86.3686 126.44C86.3687 126.44 86.3687 126.44 86.3687 126.44C86.3687 126.44 86.3688 126.44 86.3688 126.44C86.3688 126.44 86.3688 126.44 86.3689 126.44C86.3689 126.44 86.3689 126.44 86.3689 126.44C86.369 126.44 86.369 126.44 86.369 126.44C86.369 126.44 86.3691 126.44 86.3691 126.44C86.3691 126.44 86.3691 126.44 86.3691 126.44C86.3692 126.44 86.3692 126.44 86.3692 126.44C86.3692 126.44 86.3693 126.44 86.3693 126.44C86.3693 126.44 86.3693 126.44 86.3693 126.44C86.3694 126.44 86.3694 126.44 86.3694 126.44C86.3694 126.44 86.3694 126.44 86.3694 126.44C86.3695 126.44 86.3695 126.44 86.3695 126.44C86.3695 126.44 86.3695 126.44 86.3695 126.44C86.3696 126.44 86.3696 126.44 86.3696 126.44C86.3696 126.44 86.3696 126.44 86.3696 126.44C86.3697 126.44 86.3697 126.44 86.3697 126.44C86.3697 126.44 86.3697 126.44 86.3697 126.44C86.3697 126.44 86.3697 126.44 86.3698 126.44C86.3698 126.44 86.3698 126.44 86.3698 126.44C86.3698 126.44 86.3698 126.44 86.3698 126.44C86.3698 126.44 86.3698 126.44 86.3699 126.44C86.3699 126.44 86.3699 126.44 86.3699 126.44C86.3699 126.44 86.3699 126.44 86.3699 126.44C86.3699 126.44 86.3699 126.44 86.3699 126.44C86.3699 126.44 86.3699 126.44 86.3699 126.44C86.3699 126.44 86.3699 126.44 86.37 126.44C86.37 126.44 86.37 126.44 86.37 126.44H86.37C86.37 126.44 86.37 126.44 86.37 126.44C86.37 126.44 86.37 126.44 86.37 126.44H86.37C86.37 126.44 86.37 126.44 86.37 125.44ZM86.04 124.44H62.28V126.44H86.04V124.44ZM62.28 124.44C60.5232 124.44 59.0205 124.787 57.9428 125.649C56.8225 126.545 56.33 127.859 56.33 129.4H58.33C58.33 128.301 58.6625 127.635 59.1922 127.211C59.7645 126.753 60.7368 126.44 62.28 126.44V124.44ZM56.33 129.4V213.22H58.33V129.4H56.33ZM56.33 213.22C56.33 217.455 57.8753 220.931 60.9741 223.553L62.2659 222.027C59.6447 219.809 58.33 216.905 58.33 213.22H56.33ZM60.9741 223.553C64.0203 226.131 67.7562 227.519 72.1274 227.749L72.2326 225.751C68.2438 225.541 64.9397 224.289 62.2659 222.027L60.9741 223.553ZM72.1324 227.749L85.9924 228.409L86.0876 226.411L72.2276 225.751L72.1324 227.749ZM86.04 228.41C87.023 228.41 87.6052 228.711 87.9762 229.183C88.3833 229.701 88.67 230.594 88.67 232.03H90.67C90.67 230.386 90.3517 228.969 89.5488 227.947C88.7098 226.879 87.477 226.41 86.04 226.41V228.41ZM88.67 232.03C88.67 233.286 88.3353 234.05 87.8346 234.515C87.3198 234.993 86.4535 235.32 85.05 235.32V237.32C86.7265 237.32 88.1702 236.932 89.1955 235.98C90.2347 235.015 90.67 233.634 90.67 232.03H88.67ZM85.082 235.321L43.832 234.001L43.768 235.999L85.018 237.319L85.082 235.321ZM43.764 234.001L7.13399 235.321L7.20601 237.319L43.836 235.999L43.764 234.001ZM7.17 235.32C5.88715 235.32 5.00619 235.024 4.4122 234.549C3.82677 234.081 3.39706 233.34 3.20639 232.196L1.23361 232.524C1.48294 234.02 2.09823 235.259 3.16281 236.111C4.21882 236.956 5.59285 237.32 7.17 237.32V235.32ZM3.22 232.36C3.22 230.946 3.5249 230.02 3.99087 229.437C4.43781 228.879 5.14291 228.5 6.26305 228.407L6.09696 226.413C4.57709 226.54 3.3022 227.096 2.42913 228.188C1.5751 229.255 1.22 230.694 1.22 232.36H3.22ZM6.2488 228.408L15.8188 227.748L15.6812 225.752L6.1112 226.412L6.2488 228.408ZM15.823 227.747C20.4734 227.407 24.1209 226.063 26.6046 223.58C29.1001 221.084 30.28 217.58 30.28 213.22H28.28C28.28 217.22 27.2049 220.151 25.1904 222.165C23.1641 224.192 20.0466 225.433 15.677 225.753L15.823 227.747ZM30.28 213.22V25.78H28.28V213.22H30.28ZM30.28 25.78C30.28 21.5883 28.9297 18.2102 26.1412 15.7854C23.3885 13.3918 19.3549 12.0332 14.1866 11.5837L14.0134 13.5762C18.9651 14.0068 22.5215 15.2882 24.8288 17.2946C27.1003 19.2698 28.28 22.0517 28.28 25.78H30.28ZM14.2029 11.5853L4.6329 10.5953L4.4271 12.5847L13.9971 13.5747L14.2029 11.5853ZM4.70888 10.6061C3.65487 10.4145 2.98476 10.0307 2.57089 9.54155C2.15869 9.05441 1.9 8.34385 1.9 7.29998H-0.0999994C-0.0999994 8.67612 0.246312 9.89057 1.04411 10.8334C1.84024 11.7743 2.98514 12.3255 4.35112 12.5739L4.70888 10.6061ZM1.9 7.29998C1.9 5.91412 2.24579 5.05841 2.76211 4.54209C3.27843 4.02576 4.13415 3.67999 5.52 3.67999V1.67999C3.82586 1.67999 2.37157 2.10419 1.34789 3.12788C0.324214 4.15156 -0.0999994 5.60583 -0.0999994 7.29998H1.9ZM5.49103 3.67957L51.031 4.99957L51.089 3.0004L5.54897 1.6804L5.49103 3.67957ZM51.06 4.99998H112.77V2.99998H51.06V4.99998ZM232.918 12.58L232.815 13.5747L232.824 13.5755L232.832 13.5762L232.918 12.58ZM223.348 11.59L223.169 12.5739L223.207 12.5807L223.245 12.5847L223.348 11.59ZM224.338 2.67999L224.374 1.68061L224.356 1.67999H224.338V2.67999ZM261.628 3.99998L261.593 4.99936L261.631 5.0007L261.669 4.99917L261.628 3.99998ZM294.298 2.67999V1.67999H294.278L294.258 1.68079L294.298 2.67999ZM294.958 11.59L294.882 10.5929L294.833 10.5967L294.785 10.6052L294.958 11.59ZM289.348 12.58L289.521 13.565L289.522 13.5648L289.348 12.58ZM294.628 198.37L293.948 199.103L294.628 198.37ZM391.978 198.04L391.297 197.308L391.291 197.314L391.978 198.04ZM397.588 12.58L397.415 13.5648L397.416 13.565L397.588 12.58ZM391.978 11.59L392.152 10.6052L392.141 10.6033L392.13 10.6016L391.978 11.59ZM392.638 3.00999L392.677 2.01073L392.658 2.00999H392.638V3.00999ZM418.378 3.99998L418.34 4.99924L418.375 5.00058L418.409 4.9995L418.378 3.99998ZM450.388 3.00999V2.00999H450.373L450.357 2.01048L450.388 3.00999ZM451.378 11.59L451.481 12.5847L451.519 12.5807L451.557 12.5739L451.378 11.59ZM441.808 12.58L441.705 11.5853L441.7 11.5858L441.808 12.58ZM401.548 214.87L402.241 215.591L402.241 215.591L401.548 214.87ZM273.508 213.88L272.811 214.596L273.508 213.88ZM249.098 150.19V25.78H247.098V150.19H249.098ZM249.098 25.78C249.098 21.5883 247.748 18.2102 244.96 15.7854C242.207 13.3918 238.173 12.0332 233.005 11.5837L232.832 13.5762C237.783 14.0068 241.34 15.2882 243.647 17.2946C245.919 19.2698 247.098 22.0517 247.098 25.78H249.098ZM233.021 11.5853L223.451 10.5953L223.245 12.5847L232.815 13.5747L233.021 11.5853ZM223.527 10.6061C222.473 10.4145 221.803 10.0307 221.389 9.54155C220.977 9.05441 220.718 8.34385 220.718 7.29998H218.718C218.718 8.67612 219.065 9.89057 219.862 10.8334C220.659 11.7743 221.803 12.3255 223.169 12.5739L223.527 10.6061ZM220.718 7.29998C220.718 5.91412 221.064 5.05841 221.58 4.54209C222.097 4.02576 222.952 3.67999 224.338 3.67999V1.67999C222.644 1.67999 221.19 2.10419 220.166 3.12788C219.143 4.15156 218.718 5.60583 218.718 7.29998H220.718ZM224.303 3.67936L261.593 4.99936L261.664 3.00061L224.374 1.68061L224.303 3.67936ZM261.669 4.99917L294.339 3.67917L294.258 1.68079L261.588 3.0008L261.669 4.99917ZM294.298 3.67999C295.842 3.67999 296.814 3.99299 297.386 4.45085C297.916 4.87463 298.248 5.5407 298.248 6.63999H300.248C300.248 5.09928 299.756 3.78534 298.636 2.88911C297.558 2.02698 296.055 1.67999 294.298 1.67999V3.67999ZM298.248 6.63999C298.248 8.03732 297.924 8.95177 297.42 9.53255C296.927 10.1021 296.135 10.4966 294.882 10.5929L295.035 12.587C296.642 12.4634 297.995 11.9229 298.932 10.8424C299.858 9.77322 300.248 8.32266 300.248 6.63999H298.248ZM294.785 10.6052L289.175 11.5952L289.522 13.5648L295.132 12.5748L294.785 10.6052ZM289.176 11.595C284.658 12.3856 281.137 13.9316 278.741 16.3279C276.322 18.7467 275.148 21.9325 275.148 25.78H277.148C277.148 22.3675 278.174 19.7233 280.155 17.7421C282.159 15.7383 285.239 14.3144 289.521 13.565L289.176 11.595ZM275.148 25.78V150.52H277.148V25.78H275.148ZM275.148 150.52C275.148 171.193 281.381 187.433 293.948 199.103L295.309 197.637C283.236 186.427 277.148 170.767 277.148 150.52H275.148ZM293.948 199.103C306.487 210.746 322.917 216.53 343.138 216.53V214.53C323.32 214.53 307.41 208.874 295.309 197.637L293.948 199.103ZM343.138 216.53C363.582 216.53 380.125 210.635 392.666 198.766L391.291 197.314C379.192 208.765 363.175 214.53 343.138 214.53V216.53ZM392.659 198.772C405.438 186.891 411.788 170.767 411.788 150.52H409.788C409.788 170.313 403.599 185.869 391.297 197.308L392.659 198.772ZM411.788 150.52V25.78H409.788V150.52H411.788ZM411.788 25.78C411.788 21.9325 410.614 18.7467 408.195 16.3279C405.799 13.9316 402.279 12.3856 397.761 11.595L397.416 13.565C401.698 14.3144 404.777 15.7383 406.781 17.7421C408.762 19.7233 409.788 22.3675 409.788 25.78H411.788ZM397.762 11.5952L392.152 10.6052L391.805 12.5748L397.415 13.5648L397.762 11.5952ZM392.13 10.6016C390.84 10.4031 390.007 9.97691 389.494 9.42454C388.991 8.88361 388.688 8.10501 388.688 6.96999H386.688C386.688 8.47496 387.1 9.78636 388.028 10.7854C388.945 11.7731 390.257 12.3369 391.826 12.5784L392.13 10.6016ZM388.688 6.96999C388.688 5.8707 389.021 5.20464 389.551 4.78086C390.123 4.323 391.095 4.00999 392.638 4.00999V2.00999C390.882 2.00999 389.379 2.35699 388.301 3.21912C387.181 4.11535 386.688 5.42928 386.688 6.96999H388.688ZM392.6 4.00925L418.34 4.99924L418.417 3.00072L392.677 2.01073L392.6 4.00925ZM418.409 4.9995L450.419 4.00952L450.357 2.01048L418.347 3.00047L418.409 4.9995ZM450.388 4.00999C451.809 4.00999 452.687 4.31764 453.203 4.75925C453.688 5.17558 454.008 5.84785 454.008 6.96999H456.008C456.008 5.45213 455.558 4.14441 454.504 3.24074C453.479 2.36235 452.048 2.00999 450.388 2.00999V4.00999ZM454.008 6.96999C454.008 8.14349 453.74 8.94594 453.315 9.48717C452.896 10.0196 452.233 10.4182 451.199 10.6061L451.557 12.5739C452.944 12.3217 454.096 11.7304 454.887 10.7228C455.672 9.72404 456.008 8.43649 456.008 6.96999H454.008ZM451.275 10.5953L441.705 11.5853L441.911 13.5747L451.481 12.5847L451.275 10.5953ZM441.7 11.5858C436.536 12.1472 432.512 13.5635 429.767 15.9504C426.985 18.3695 425.628 21.6882 425.628 25.78H427.628C427.628 22.1718 428.802 19.4405 431.08 17.4596C433.395 15.4464 436.961 14.1128 441.916 13.5741L441.7 11.5858ZM425.628 25.78V150.19H427.628V25.78H425.628ZM425.628 150.19C425.628 177.027 417.346 198.309 400.856 214.149L402.241 215.591C419.19 199.311 427.628 177.473 427.628 150.19H425.628ZM400.856 214.149C384.568 229.785 363.598 237.63 337.858 237.63V239.63C364.039 239.63 385.529 231.635 402.241 215.591L400.856 214.149ZM337.858 237.63C312.131 237.63 290.94 229.463 274.206 213.164L272.811 214.596C289.956 231.297 311.666 239.63 337.858 239.63V237.63ZM274.206 213.164C257.479 196.871 249.098 175.909 249.098 150.19H247.098C247.098 176.391 255.657 197.889 272.811 214.596L274.206 213.164ZM771.953 235L771.328 234.219L771.285 234.254L771.246 234.293L771.953 235ZM768.983 236.32L768.947 237.319L768.965 237.32H768.983V236.32ZM731.693 235L731.728 234.001L731.69 233.999L731.652 234.001L731.693 235ZM699.023 236.32V237.32H699.043L699.063 237.319L699.023 236.32ZM698.033 227.41L697.916 226.417L697.885 226.421L697.854 226.426L698.033 227.41ZM703.643 226.75L703.76 227.743L703.761 227.743L703.643 226.75ZM717.503 213.22H718.503V213.212L718.503 213.203L717.503 213.22ZM714.863 57.13H713.863V57.1384L713.863 57.1469L714.863 57.13ZM711.563 54.82L712.457 55.2672L712.489 55.2036L712.511 55.1362L711.563 54.82ZM621.803 234.34L622.677 234.826L622.687 234.807L622.697 234.787L621.803 234.34ZM614.213 234.34L615.127 233.934L615.115 233.907L615.101 233.881L614.213 234.34ZM524.123 60.1L523.174 60.4162L523.199 60.4901L523.234 60.5593L524.123 60.1ZM520.823 62.41L521.823 62.4231V62.41H520.823ZM518.843 213.22L517.843 213.207V213.22H518.843ZM532.043 226.42L532.217 225.435L532.215 225.435L532.043 226.42ZM537.653 227.41L537.479 228.395L537.49 228.397L537.501 228.398L537.653 227.41ZM536.993 235.99L536.956 236.989L536.974 236.99H536.993V235.99ZM509.933 235L509.969 234.001L509.936 233.999L509.902 234L509.933 235ZM477.923 235.99V236.99H477.938L477.954 236.99L477.923 235.99ZM476.933 227.41L476.83 226.415L476.792 226.419L476.754 226.426L476.933 227.41ZM486.503 226.42L486.606 227.415L486.611 227.414L486.503 226.42ZM501.683 213.22L500.683 213.199L500.683 213.209V213.22H501.683ZM505.643 25.78L504.643 25.7514L504.643 25.7589L505.643 25.78ZM492.443 12.58L492.564 11.5873L492.553 11.5861L492.443 12.58ZM486.503 11.92L486.338 12.9064L486.365 12.9109L486.392 12.9139L486.503 11.92ZM487.493 3.00999L487.527 2.01057L487.51 2.00999H487.493V3.00999ZM516.533 3.99998L516.499 4.99941L516.503 4.99955L516.533 3.99998ZM530.723 10.6L529.819 11.0281L529.824 11.0396L529.83 11.051L530.723 10.6ZM624.113 195.4L623.22 195.851L624.124 197.639L625.01 195.842L624.113 195.4ZM715.193 10.6L714.298 10.1528L714.296 10.1579L715.193 10.6ZM729.713 3.99998L729.679 3.00055L729.667 3.00095L729.656 3.00161L729.713 3.99998ZM759.083 3.00999V2.00999H759.066L759.049 2.01057L759.083 3.00999ZM760.403 11.92L760.513 12.9139L760.54 12.9109L760.567 12.9064L760.403 11.92ZM754.463 12.58L754.539 13.577L754.556 13.5757L754.573 13.5739L754.463 12.58ZM741.593 25.78H740.593V25.7906L740.593 25.8011L741.593 25.78ZM745.553 213.22H746.553V213.209L746.552 213.199L745.553 213.22ZM749.513 222.79L748.837 223.527L748.869 223.556L748.903 223.583L749.513 222.79ZM760.073 226.75L759.968 227.745L759.986 227.746L760.004 227.748L760.073 226.75ZM769.643 227.41L769.574 228.408L769.608 228.41H769.643V227.41ZM772.603 231.7C772.603 232.693 772.209 233.514 771.328 234.219L772.577 235.781C773.896 234.726 774.603 233.347 774.603 231.7H772.603ZM771.246 234.293C770.526 235.012 769.782 235.32 768.983 235.32V237.32C770.384 237.32 771.619 236.748 772.66 235.707L771.246 234.293ZM769.018 235.321L731.728 234.001L731.657 235.999L768.947 237.319L769.018 235.321ZM731.652 234.001L698.982 235.321L699.063 237.319L731.733 235.999L731.652 234.001ZM699.023 235.32C697.602 235.32 696.724 235.012 696.209 234.571C695.723 234.154 695.403 233.482 695.403 232.36H693.403C693.403 233.878 693.853 235.186 694.907 236.089C695.932 236.968 697.363 237.32 699.023 237.32V235.32ZM695.403 232.36C695.403 231.06 695.679 230.166 696.117 229.569C696.541 228.99 697.199 228.578 698.212 228.394L697.854 226.426C696.446 226.682 695.29 227.315 694.504 228.386C693.732 229.439 693.403 230.8 693.403 232.36H695.403ZM698.15 228.403L703.76 227.743L703.526 225.757L697.916 226.417L698.15 228.403ZM703.761 227.743C708.506 227.178 712.213 225.722 714.736 223.258C717.281 220.774 718.503 217.384 718.503 213.22H716.503C716.503 216.976 715.414 219.801 713.339 221.827C711.243 223.873 708.019 225.222 703.525 225.757L703.761 227.743ZM718.503 213.203L715.863 57.1131L713.863 57.1469L716.503 213.237L718.503 213.203ZM715.863 57.13C715.863 55.9626 715.693 54.9209 715.225 54.1405C714.708 53.2787 713.882 52.83 712.883 52.83V54.83C713.204 54.83 713.367 54.9312 713.51 55.1695C713.702 55.4891 713.863 56.0974 713.863 57.13H715.863ZM712.883 52.83C712.381 52.83 711.883 52.9583 711.458 53.2775C711.037 53.5934 710.771 54.032 710.614 54.5038L712.511 55.1362C712.574 54.948 712.639 54.8916 712.658 54.8775C712.672 54.8667 712.725 54.83 712.883 54.83V52.83ZM710.668 54.3728L620.908 233.893L622.697 234.787L712.457 55.2672L710.668 54.3728ZM620.929 233.854C619.913 235.682 618.864 236.31 617.843 236.31V238.31C619.902 238.31 621.492 236.958 622.677 234.826L620.929 233.854ZM617.843 236.31C616.857 236.31 615.923 235.725 615.127 233.934L613.299 234.746C614.263 236.915 615.749 238.31 617.843 238.31V236.31ZM615.101 233.881L525.011 59.6407L523.234 60.5593L613.324 234.799L615.101 233.881ZM525.071 59.7838C524.914 59.312 524.649 58.8733 524.228 58.5575C523.802 58.2383 523.305 58.11 522.803 58.11V60.11C522.961 60.11 523.013 60.1467 523.028 60.1575C523.047 60.1716 523.111 60.228 523.174 60.4162L525.071 59.7838ZM522.803 58.11C521.804 58.11 520.977 58.5587 520.46 59.4205C519.992 60.2009 519.823 61.2426 519.823 62.41H521.823C521.823 61.3773 521.983 60.7691 522.175 60.4495C522.318 60.2112 522.482 60.11 522.803 60.11V58.11ZM519.823 62.3969L517.843 213.207L519.843 213.233L521.823 62.4231L519.823 62.3969ZM517.843 213.22C517.843 217.067 519.017 220.253 521.436 222.672C523.832 225.068 527.352 226.614 531.87 227.405L532.215 225.435C527.933 224.686 524.854 223.262 522.85 221.258C520.869 219.277 519.843 216.633 519.843 213.22H517.843ZM531.869 227.405L537.479 228.395L537.827 226.425L532.217 225.435L531.869 227.405ZM537.501 228.398C538.791 228.597 539.625 229.023 540.137 229.575C540.64 230.116 540.943 230.895 540.943 232.03H542.943C542.943 230.525 542.531 229.214 541.603 228.215C540.686 227.227 539.375 226.663 537.805 226.422L537.501 228.398ZM540.943 232.03C540.943 233.129 540.61 233.795 540.081 234.219C539.508 234.677 538.536 234.99 536.993 234.99V236.99C538.75 236.99 540.252 236.643 541.33 235.781C542.45 234.885 542.943 233.571 542.943 232.03H540.943ZM537.029 234.991L509.969 234.001L509.896 235.999L536.956 236.989L537.029 234.991ZM509.902 234L477.892 234.99L477.954 236.99L509.964 236L509.902 234ZM477.923 234.99C476.502 234.99 475.624 234.682 475.109 234.241C474.623 233.824 474.303 233.152 474.303 232.03H472.303C472.303 233.548 472.753 234.856 473.807 235.759C474.832 236.638 476.263 236.99 477.923 236.99V234.99ZM474.303 232.03C474.303 230.857 474.571 230.054 474.997 229.513C475.415 228.98 476.078 228.582 477.112 228.394L476.754 226.426C475.367 226.678 474.216 227.27 473.424 228.277C472.639 229.276 472.303 230.564 472.303 232.03H474.303ZM477.036 228.405L486.606 227.415L486.4 225.425L476.83 226.415L477.036 228.405ZM486.611 227.414C491.775 226.853 495.799 225.436 498.544 223.05C501.326 220.63 502.683 217.312 502.683 213.22H500.683C500.683 216.828 499.51 219.56 497.232 221.54C494.916 223.554 491.35 224.887 486.395 225.426L486.611 227.414ZM502.683 213.241L506.643 25.8011L504.643 25.7589L500.683 213.199L502.683 213.241ZM506.642 25.8086C506.758 21.7535 505.654 18.4369 503.215 15.9979C500.799 13.5817 497.197 12.1524 492.564 11.5873L492.322 13.5726C496.708 14.1076 499.817 15.4283 501.801 17.4121C503.762 19.373 504.747 22.1065 504.643 25.7514L506.642 25.8086ZM492.553 11.5861L486.613 10.9261L486.392 12.9139L492.332 13.5739L492.553 11.5861ZM486.667 10.9336C485.504 10.7397 484.756 10.3258 484.292 9.78419C483.829 9.24428 483.543 8.45461 483.543 7.29998H481.543C481.543 8.78536 481.916 10.0857 482.773 11.0858C483.629 12.0841 484.862 12.6602 486.338 12.9064L486.667 10.9336ZM483.543 7.29998C483.543 6.06438 483.893 5.30848 484.435 4.83818C485.005 4.34417 485.965 4.00999 487.493 4.00999V2.00999C485.721 2.00999 484.205 2.39082 483.125 3.32681C482.018 4.2865 481.543 5.67559 481.543 7.29998H483.543ZM487.459 4.00941L516.499 4.9994L516.567 3.00056L487.527 2.01057L487.459 4.00941ZM516.503 4.99955C523.857 5.21585 528.084 7.36616 529.819 11.0281L531.626 10.1719C529.401 5.47382 524.168 3.22411 516.562 3.00042L516.503 4.99955ZM529.83 11.051L623.22 195.851L625.005 194.949L531.615 10.149L529.83 11.051ZM625.01 195.842L716.09 11.0421L714.296 10.1579L623.216 194.958L625.01 195.842ZM716.087 11.0472C717.815 7.5924 722.157 5.43336 729.77 4.99835L729.656 3.00161C721.868 3.44662 716.531 5.68759 714.298 10.1528L716.087 11.0472ZM729.746 4.99942L759.116 4.00943L759.049 2.01057L729.679 3.00055L729.746 4.99942ZM759.083 4.00999C760.733 4.00999 761.785 4.3494 762.412 4.85861C762.999 5.33555 763.363 6.08537 763.363 7.29998H765.363C765.363 5.65459 764.846 4.25943 763.673 3.30637C762.54 2.3856 760.952 2.00999 759.083 2.00999V4.00999ZM763.363 7.29998C763.363 8.45461 763.076 9.24427 762.614 9.78419C762.149 10.3258 761.402 10.7397 760.238 10.9336L760.567 12.9064C762.044 12.6603 763.276 12.0841 764.132 11.0858C764.989 10.0857 765.363 8.78536 765.363 7.29998H763.363ZM760.292 10.9261L754.352 11.5861L754.573 13.5739L760.513 12.9139L760.292 10.9261ZM754.386 11.5829C749.95 11.9241 746.466 13.2441 744.094 15.6769C741.714 18.118 740.593 21.5365 740.593 25.78H742.593C742.593 21.8835 743.616 19.032 745.526 17.0731C747.444 15.1058 750.395 13.8958 754.539 13.577L754.386 11.5829ZM740.593 25.8011L744.553 213.241L746.552 213.199L742.593 25.7589L740.593 25.8011ZM744.553 213.22C744.553 217.427 745.967 220.897 748.837 223.527L750.188 222.053C747.778 219.843 746.553 216.933 746.553 213.22H744.553ZM748.903 223.583C751.932 225.913 755.635 227.288 759.968 227.745L760.177 225.755C756.15 225.332 752.813 224.067 750.122 221.997L748.903 223.583ZM760.004 227.748L769.574 228.408L769.712 226.412L760.142 225.752L760.004 227.748ZM769.643 228.41C770.787 228.41 771.468 228.716 771.878 229.161C772.302 229.62 772.603 230.405 772.603 231.7H774.603C774.603 230.135 774.243 228.775 773.348 227.804C772.438 226.819 771.138 226.41 769.643 226.41V228.41ZM932.65 140.29L933.599 139.974L933.591 139.95L933.582 139.928L932.65 140.29ZM893.38 39.31L894.312 38.9475L893.377 36.5431L892.447 38.9496L893.38 39.31ZM854.11 140.95L853.177 140.59L853.163 140.626L853.152 140.663L854.11 140.95ZM826.06 213.22L825.127 212.86L825.118 212.882L825.111 212.904L826.06 213.22ZM828.04 223.45L827.259 224.075L827.275 224.095L827.292 224.114L828.04 223.45ZM835.3 226.75L835.39 225.754L835.381 225.753L835.371 225.753L835.3 226.75ZM842.56 227.41L842.712 226.422L842.681 226.417L842.65 226.414L842.56 227.41ZM841.9 236.32L841.854 237.319L841.877 237.32H841.9V236.32ZM813.19 235L813.236 234.001L813.191 233.999L813.146 234.001L813.19 235ZM783.16 236.32V237.32H783.182L783.204 237.319L783.16 236.32ZM782.17 227.41V228.41H782.222L782.275 228.405L782.17 227.41ZM788.44 226.75L788.545 227.745L788.555 227.743L788.44 226.75ZM807.58 213.22L808.503 213.605L808.506 213.596L807.58 213.22ZM892.39 4.32998L893.316 4.70616L893.328 4.67654L893.339 4.64621L892.39 4.32998ZM908.23 4.32998L909.157 3.95504L909.153 3.94537L908.23 4.32998ZM992.71 213.22L993.653 212.889L993.646 212.867L993.637 212.845L992.71 213.22ZM1011.52 226.75L1011.61 225.754L1011.61 225.754L1011.52 226.75ZM1018.45 227.41L1018.35 228.405L1018.4 228.41H1018.45V227.41ZM1017.13 236.32L1017.1 237.319L1017.11 237.32H1017.13V236.32ZM979.18 235L979.215 234.001L979.178 233.999L979.141 234.001L979.18 235ZM945.19 236.32V237.32H945.209L945.229 237.319L945.19 236.32ZM944.53 227.41L944.613 228.407L944.616 228.406L944.53 227.41ZM952.12 226.75L952.043 225.753L952.033 225.754L952.12 226.75ZM959.05 223.45L958.343 222.743L958.322 222.764L958.302 222.786L959.05 223.45ZM961.03 213.22L960.097 213.58L960.114 213.624L960.135 213.667L961.03 213.22ZM941.56 162.73L940.602 163.017L940.613 163.054L940.627 163.09L941.56 162.73ZM845.53 162.73L844.601 162.359L844.597 162.37L845.53 162.73ZM856.75 145.25H930.34V143.25H856.75V145.25ZM930.34 145.25C931.685 145.25 932.943 144.883 933.596 143.764C934.208 142.714 934.06 141.359 933.599 139.974L931.701 140.606C932.119 141.861 932.026 142.486 931.869 142.756C931.751 142.957 931.414 143.25 930.34 143.25V145.25ZM933.582 139.928L894.312 38.9475L892.448 39.6724L931.718 140.652L933.582 139.928ZM892.447 38.9496L853.177 140.59L855.043 141.31L894.313 39.6704L892.447 38.9496ZM853.152 140.663C852.788 141.876 852.745 143.114 853.494 144.05C854.225 144.963 855.447 145.25 856.75 145.25V143.25C855.633 143.25 855.205 142.987 855.056 142.8C854.924 142.636 854.772 142.224 855.068 141.237L853.152 140.663ZM825.111 212.904C824.63 214.349 824.4 216 824.4 217.84H826.4C826.4 216.16 826.61 214.731 827.009 213.536L825.111 212.904ZM824.4 217.84C824.4 219.73 825.461 221.827 827.259 224.075L828.821 222.825C827.099 220.673 826.4 219.03 826.4 217.84H824.4ZM827.292 224.114C829.254 226.322 831.935 227.512 835.229 227.747L835.371 225.753C832.505 225.548 830.345 224.538 828.787 222.786L827.292 224.114ZM835.209 227.746L842.469 228.406L842.65 226.414L835.39 225.754L835.209 227.746ZM842.408 228.398C843.715 228.599 844.558 229.007 845.07 229.52C845.562 230.011 845.85 230.699 845.85 231.7H847.85C847.85 230.281 847.423 229.044 846.484 228.105C845.567 227.188 844.265 226.661 842.712 226.422L842.408 228.398ZM845.85 231.7C845.85 233.068 845.487 233.914 844.93 234.434C844.36 234.966 843.412 235.32 841.9 235.32V237.32C843.688 237.32 845.214 236.904 846.295 235.896C847.388 234.876 847.85 233.413 847.85 231.7H845.85ZM841.946 235.321L813.236 234.001L813.144 235.999L841.854 237.319L841.946 235.321ZM813.146 234.001L783.116 235.321L783.204 237.319L813.234 235.999L813.146 234.001ZM783.16 235.32C781.756 235.32 780.89 234.993 780.375 234.515C779.875 234.05 779.54 233.286 779.54 232.03H777.54C777.54 233.634 777.975 235.015 779.014 235.98C780.04 236.932 781.483 237.32 783.16 237.32V235.32ZM779.54 232.03C779.54 230.594 779.827 229.701 780.234 229.183C780.605 228.711 781.187 228.41 782.17 228.41V226.41C780.733 226.41 779.5 226.879 778.661 227.947C777.858 228.969 777.54 230.386 777.54 232.03H779.54ZM782.275 228.405L788.545 227.745L788.335 225.755L782.065 226.415L782.275 228.405ZM788.555 227.743C798.327 226.607 805.046 221.901 808.503 213.605L806.657 212.835C803.514 220.379 797.473 224.693 788.324 225.757L788.555 227.743ZM808.506 213.596L893.316 4.70616L891.463 3.9538L806.653 212.844L808.506 213.596ZM893.339 4.64621C893.694 3.57904 894.368 2.79005 895.41 2.24657C896.481 1.68764 897.982 1.37 899.98 1.37V-0.630005C897.798 -0.630005 895.943 -0.287666 894.485 0.473404C892.996 1.24992 891.965 2.44093 891.441 4.01375L893.339 4.64621ZM899.98 1.37C904.224 1.37 906.439 2.63251 907.307 4.7146L909.153 3.94537C907.82 0.747467 904.535 -0.630005 899.98 -0.630005V1.37ZM907.303 4.7049L991.783 213.595L993.637 212.845L909.157 3.95506L907.303 4.7049ZM991.766 213.551C993.256 217.791 995.653 221.131 998.973 223.519C1002.29 225.902 1006.46 227.294 1011.43 227.746L1011.61 225.754C1006.9 225.326 1003.1 224.023 1000.14 221.896C997.192 219.774 995.024 216.789 993.653 212.889L991.766 213.551ZM1011.43 227.745L1018.35 228.405L1018.54 226.414L1011.61 225.755L1011.43 227.745ZM1018.45 228.41C1018.94 228.41 1019.44 228.632 1019.96 229.33L1021.56 228.13C1020.76 227.068 1019.72 226.41 1018.45 226.41V228.41ZM1019.96 229.33C1020.52 230.081 1020.75 230.755 1020.75 231.37H1022.75C1022.75 230.224 1022.32 229.139 1021.56 228.13L1019.96 229.33ZM1020.75 231.37C1020.75 232.882 1020.4 233.83 1019.86 234.4C1019.34 234.957 1018.5 235.32 1017.13 235.32V237.32C1018.84 237.32 1020.31 236.858 1021.33 235.765C1022.33 234.685 1022.75 233.158 1022.75 231.37H1020.75ZM1017.16 235.321L979.215 234.001L979.145 235.999L1017.1 237.319L1017.16 235.321ZM979.141 234.001L945.151 235.321L945.229 237.319L979.219 235.999L979.141 234.001ZM945.19 235.32C943.77 235.32 942.891 235.012 942.376 234.571C941.89 234.154 941.57 233.482 941.57 232.36H939.57C939.57 233.878 940.02 235.186 941.074 236.089C942.099 236.968 943.53 237.32 945.19 237.32V235.32ZM941.57 232.36C941.57 230.946 941.875 230.02 942.341 229.437C942.788 228.879 943.493 228.5 944.613 228.407L944.447 226.413C942.927 226.54 941.652 227.096 940.779 228.188C939.925 229.255 939.57 230.694 939.57 232.36H941.57ZM944.616 228.406L952.206 227.746L952.033 225.754L944.443 226.414L944.616 228.406ZM952.197 227.747C955.291 227.509 957.85 226.305 959.797 224.114L958.302 222.786C956.729 224.555 954.668 225.551 952.043 225.753L952.197 227.747ZM959.757 224.157C961.818 222.096 963.02 219.986 963.02 217.84H961.02C961.02 219.214 960.242 220.844 958.343 222.743L959.757 224.157ZM963.02 217.84C963.02 215.954 962.666 214.256 961.924 212.773L960.135 213.667C960.714 214.824 961.02 216.206 961.02 217.84H963.02ZM961.963 212.86L942.493 162.37L940.627 163.09L960.097 213.58L961.963 212.86ZM942.518 162.443C942.126 161.137 941.383 160.1 940.275 159.407C939.187 158.727 937.829 158.43 936.28 158.43V160.43C937.591 160.43 938.543 160.683 939.215 161.103C939.866 161.51 940.334 162.123 940.602 163.017L942.518 162.443ZM936.28 158.43H850.81V160.43H936.28V158.43ZM850.81 158.43C849.353 158.43 848.057 158.734 846.98 159.407C845.895 160.085 845.109 161.091 844.601 162.359L846.458 163.101C846.831 162.169 847.365 161.525 848.04 161.103C848.723 160.676 849.627 160.43 850.81 160.43V158.43ZM844.597 162.37L825.127 212.86L826.993 213.58L846.463 163.09L844.597 162.37ZM1072.5 203.98L1071.8 204.687L1071.81 204.697L1071.82 204.706L1072.5 203.98ZM1072.5 232.69L1071.82 231.964L1071.81 231.973L1071.8 231.983L1072.5 232.69ZM1044.12 232.69L1044.83 231.983L1044.12 232.69ZM1044.12 204.31L1044.83 205.017L1044.84 205.008L1044.85 204.998L1044.12 204.31ZM1058.31 199.04C1063.54 199.04 1068.02 200.911 1071.8 204.687L1073.21 203.273C1069.07 199.129 1064.08 197.04 1058.31 197.04V199.04ZM1071.82 204.706C1075.8 208.479 1077.77 213.057 1077.77 218.5H1079.77C1079.77 212.503 1077.57 207.401 1073.19 203.254L1071.82 204.706ZM1077.77 218.5C1077.77 223.711 1075.81 228.183 1071.82 231.964L1073.19 233.416C1077.56 229.277 1079.77 224.289 1079.77 218.5H1077.77ZM1071.8 231.983C1068.02 235.759 1063.54 237.63 1058.31 237.63V239.63C1064.08 239.63 1069.07 237.541 1073.21 233.397L1071.8 231.983ZM1058.31 237.63C1053.08 237.63 1048.61 235.759 1044.83 231.983L1043.42 233.397C1047.56 237.541 1052.54 239.63 1058.31 239.63V237.63ZM1044.83 231.983C1041.05 228.207 1039.18 223.729 1039.18 218.5H1037.18C1037.18 224.271 1039.27 229.253 1043.42 233.397L1044.83 231.983ZM1039.18 218.5C1039.18 213.271 1041.05 208.793 1044.83 205.017L1043.42 203.603C1039.27 207.747 1037.18 212.729 1037.18 218.5H1039.18ZM1044.85 204.998C1048.63 201.007 1053.1 199.04 1058.31 199.04V197.04C1052.52 197.04 1047.54 199.253 1043.4 203.622L1044.85 204.998Z" fill="black" fill-opacity="0.4"/>
</svg>
